<?xml version="1.0" encoding="UTF-8" standalone="no"?>
<!-- Created with Inkscape (http://www.inkscape.org/) -->

<svg
   xmlns:dc="http://purl.org/dc/elements/1.1/"
   xmlns:cc="http://creativecommons.org/ns#"
   xmlns:rdf="http://www.w3.org/1999/02/22-rdf-syntax-ns#"
   xmlns:svg="http://www.w3.org/2000/svg"
   xmlns="http://www.w3.org/2000/svg"
   xmlns:sodipodi="http://sodipodi.sourceforge.net/DTD/sodipodi-0.dtd"
   xmlns:inkscape="http://www.inkscape.org/namespaces/inkscape"
   width="466.8187mm"
   height="165.72809mm"
   viewBox="0 0 1654.082 587.22551"
   id="svg2"
   version="1.1"
   inkscape:version="0.91 r13725"
   sodipodi:docname="Capital (1992-2015).svg">
  <defs
     id="defs4" />
  <sodipodi:namedview
     id="base"
     pagecolor="#ffffff"
     bordercolor="#666666"
     borderopacity="1.0"
     inkscape:pageopacity="0.0"
     inkscape:pageshadow="2"
     inkscape:zoom="0.7"
     inkscape:cx="892.39573"
     inkscape:cy="456.70788"
     inkscape:document-units="px"
     inkscape:current-layer="layer1"
     showgrid="false"
     fit-margin-left="1"
     fit-margin-top="1"
     fit-margin-bottom="1"
     fit-margin-right="1"
     inkscape:window-width="1920"
     inkscape:window-height="1017"
     inkscape:window-x="-8"
     inkscape:window-y="-8"
     inkscape:window-maximized="1" />
  <metadata
     id="metadata7">
    <rdf:RDF>
      <cc:Work
         rdf:about="">
        <dc:format>image/svg+xml</dc:format>
        <dc:type
           rdf:resource="http://purl.org/dc/dcmitype/StillImage" />
        <dc:title></dc:title>
      </cc:Work>
    </rdf:RDF>
  </metadata>
  <g
     inkscape:label="Calque 1"
     inkscape:groupmode="layer"
     id="layer1"
     transform="translate(706.53871,-1111.1086)">
    <path
       style="fill:#000000"
       d="m -105,1691.9304 c 0,-1.5733 -0.27673,-4.8795 -0.61497,-7.3471 l -0.61496,-4.4867 5.11397,-0.6057 c 9.920034,-1.1749 19.390754,-7.073 25.348664,-15.7866 6.29838,-9.2115 6.7673,-12.828 6.7673,-52.1917 l 0,-34.858 -2.95158,2.1017 c -9.31216,6.6308 -26.6394,11.2744 -42.048424,11.2686 -12.93348,0 -20.46012,-1.3219 -34,-5.9493 -22.0943,-7.5509 -39.07771,-21.6696 -48.34033,-40.1864 -2.36564,-4.7292 -4.61956,-9.7234 -5.00872,-11.0984 -0.69076,-2.4406 -0.8435,-2.3572 -6.42926,3.5106 -12.78051,13.4258 -29.76011,26.6412 -45.49343,35.408 -29.02015,16.1703 -55.17668,20.3274 -78.61575,12.4946 -9.78942,-3.2714 -14.59952,-6.1219 -22.2529,-13.1871 -11.1424,-10.286 -17.71483,-23.6377 -19.79243,-40.2076 -2.51785,-20.0812 5.94534,-46.2522 21.66378,-66.9917 10.90892,-14.3936 33.61845,-33.8251 50.97977,-43.621 18.85157,-10.6368 39.78127,-20.2227 54.34584,-24.8906 19.19598,-6.1523 26.66629,-8.464 30.7216,-9.5071 l 4.27816,-1.1004 -0.27816,-47.2039 -0.27817,-47.2038 -2.4606,-4.8168 c -8.23229,-16.1152 -33.01835,-22.8631 -56.9226,-15.4969 -9.44506,2.9105 -13.40291,5.1617 -17.50935,9.9592 -3.11669,3.6411 -3.60694,4.9042 -3.60371,9.2845 0.005,6.5481 2.13232,9.998 12.08437,19.5954 10.38017,10.0103 13.41189,16.2209 13.41189,27.4746 0,12.8389 -4.6811,20.2297 -19.22709,30.3568 -4.33937,3.0211 -15.43865,6.7019 -24.72825,8.2005 -9.13094,1.473 -18.34069,0.2848 -28.95104,-3.7351 -5.45929,-2.0683 -8.31235,-4.0001 -13.61654,-9.2194 -11.45778,-11.2745 -16.68492,-25.0157 -15.63549,-41.1028 0.74206,-11.3753 2.75125,-17.4847 8.61761,-26.2035 15.88315,-23.6064 46.66031,-42.2119 84.61496,-51.1518 21.80586,-5.1362 28.97876,-6.0258 48.42584,-6.0056 19.80409,0.021 29.3823,1.4083 46.94983,6.8019 16.52477,5.0735 29.11678,12.1773 40.797,23.0158 16.26277,15.0908 26.5408,37.1261 29.23123,62.6697 0.58271,5.5324 0.99438,52.4289 1.00461,114.442 0.0191,116.0534 -0.1953,111.9952 6.23993,118.0901 6.662544,6.3103 18.011664,6.9766 28.603124,1.6793 l 5.67428,-2.8379 0,-136.1769 0,-136.1768 -2.1033,-2.817 c -2.93907,-3.9363 -10.3352,-7.4795 -17.13938,-8.2106 l -5.75732,-0.6187 0,-7 0,-7 7,-2.1282 c 25.34018,-7.7041 53.48514,-16.3719 68.5,-21.096 24.7351703,-7.7824 26.9739803,-8.2758 37.54879,-8.2758 l 9.45121,0 0,20.61 0,20.61 4.33787,-5.86 c 10.17776,-13.7491 25.70248,-25.3112 41.85587,-31.1723 6.88554,-2.4984 8.31398,-2.6483 24.80626,-2.6031 16.422346,0.045 17.931566,0.2108 24.508266,2.691 17.19352,6.4842 31.07809,16.3786 42.64991,30.3932 8.77669,10.6294 9.70422,12.0618 16.72726,25.8312 10.5828,20.7487 18.32212,49.3298 21.25651,78.5 1.9454,19.3387 1.70101,60.6224 -0.47467,80.1829 -6.07216,54.5922 -28.85623,99.7941 -60.66728,120.3594 -15.83457,10.2367 -28.50087,14.3512 -46.768166,15.1921 -24.48967,1.1272 -47.50392,-7.6771 -63.03529,-24.1148 l -5.30347,-5.613 0.30347,47.7467 0.30346,47.7467 2.76301,5.624 c 5.73972,11.6829 16.49717,19.9794 27.8606,21.4868 l 4.87639,0.6468 0,7.3712 0,7.3712 -84.5,0 -84.500004,0 z M 80.507284,1545.4395 c 6.32927,-2.9474 10.4445,-7.6295 14.82022,-16.8615 4.46201,-9.4141 6.269276,-15.649 8.631046,-29.7763 4.01517,-24.0171 4.54145,-33.9265 4.54145,-85.5109 0,-51.4138 -0.43119,-59.3978 -4.48342,-83.0149 -3.85622,-22.4747 -11.901056,-38.1272 -22.516576,-43.8094 -5.46323,-2.9244 -17.73549,-3.0085 -25.41501,-0.1742 -13.817,5.0994 -24.77356,22.4108 -26.89767,42.4985 -0.37802,3.575 -0.68732,43.85 -0.68732,89.5 l 0,83 2.35553,9 c 3.16005,12.0739 9.11916,23.3928 15.1887,28.8498 9.10842,8.1893 24.40132,10.9844 34.46305,6.2989 z m -318.656204,-13.1972 c 6.20371,-1.8423 17.55726,-11.9097 21.61128,-19.1631 l 2.53764,-4.5403 0,-47.3741 c 0,-26.0557 -0.23399,-47.374 -0.51998,-47.374 -2.31622,0 -20.06216,10.2836 -28.21021,16.3476 -12.70698,9.4569 -21.94582,20.1241 -27.841,32.1453 -5.53417,11.2851 -7.43551,18.7235 -7.40436,28.9672 0.0311,10.2353 1.20185,15.2649 5.66216,24.3251 7.35462,14.9394 19.70006,20.9618 34.16447,16.6663 z M 752.5,1589.7461 c -21.4321,-2.2604 -41.4651,-11.6709 -55.5,-26.0711 -7.0047,-7.187 -14.6667,-19.1978 -17.625,-27.6282 l -1.8401,-5.2439 -7.0175,6.8118 c -11.3282,10.9962 -17.6901,16.3938 -28.16,23.8915 -33.5545,24.029 -67.4876,31.9897 -95.6001,22.4279 -9.1626,-3.1164 -12.0124,-4.7706 -20.5367,-11.9202 -4.6934,-3.9365 -5.484,-4.2779 -7.1224,-3.0756 -1.0136,0.7439 -4.4245,3.3155 -7.5798,5.7147 -12.0936,9.1958 -26.9413,14.1525 -44.5554,14.8742 -14.5297,0.5953 -23.4854,-1.145 -36.2564,-7.0456 -13.3527,-6.1694 -27.9801,-18.8405 -36.8825,-31.9499 -5.73,-8.4377 -12.2893,-22.7451 -15.0103,-32.7409 l -2.3138,-8.5 0,-116.2498 0,-116.2499 -17.785,-10e-5 -17.785,-2e-4 0.285,-10.1456 0.285,-10.1456 8.5755,-1.7342 c 9.1342,-1.8471 24.505,-7.5106 31.9245,-11.7628 12.9405,-7.4164 26.3072,-19.6471 35.2284,-32.2346 4.6571,-6.5711 13.1401,-22.764 16.8315,-32.1293 4.3523,-11.0417 9.4486,-33.8582 10.6874,-47.8479 l 0.7527,-8.5 10.25,-0.285 10.25,-0.285 0,66.535 0,66.535 19.5,0 19.5,0 0,11 0,11 -20,0 -20,0 0.01,132.75 c 0,85.8454 0.3606,134.0282 1.0104,136.3676 1.5305,5.5099 5.0213,10.0108 10.2911,13.2688 8.9781,5.5507 25.441,4.3871 33.5023,-2.368 l 2.3094,-1.9352 -3.2191,-9.2916 c -13.2963,-38.3783 8.8159,-83.8897 57.1589,-117.6447 10.3536,-7.2293 29.9112,-17.7194 45.6116,-24.4646 12.298,-5.2835 42.6446,-15.6117 53.6173,-18.2482 l 2.7875,-0.6698 -0.2875,-46.1554 -0.2875,-46.1554 -3.3401,-6.7824 c -4.1136,-8.3534 -9.4426,-12.5408 -20.1393,-15.8252 -19.3477,-5.9407 -47.8388,0.013 -54.9032,11.4722 -5.4529,8.8455 -3.809,14.0989 8.3334,26.6311 12.178,12.5689 14.9465,17.8456 14.9796,28.5508 0.022,6.9964 -0.3435,8.6698 -2.9104,13.3393 -3.1909,5.8047 -11.2518,13.7471 -17.9157,17.6524 -9.1946,5.3884 -26.0398,9.0993 -36.1043,7.9536 -7.7113,-0.8778 -17.8417,-4 -22.4135,-6.9079 -4.3428,-2.7621 -13.8746,-12.7192 -16.7885,-17.5374 -6.8707,-11.3612 -8.6446,-30.1381 -4.1099,-43.5022 10.2129,-30.0978 50.549,-56.4349 101.9422,-66.5623 33.6976,-6.6404 71.5749,-3.4902 97.546,8.1128 24.1138,10.7733 43.4957,31.5857 51.1864,54.9645 5.804,17.6434 5.4946,10.8587 6.0893,133.4872 l 0.548,113 2.6697,5.0583 c 3.7808,7.1635 9.2799,10.7482 17.2685,11.2568 4.8595,0.3095 7.1075,-0.053 10.2389,-1.6504 5.2346,-2.6705 9.9726,-8.15 11.2956,-13.0635 1.25,-4.6421 0.9596,-391.8168 -0.2974,-396.5371 -2.8098,-10.5345 -13.3841,-16.4796 -29.4297,-16.5433 l -5.25,-0.021 0,-8.0071 0,-8.0072 66.25,0.2572 66.25,0.2571 0.5,209.5 0.5,209.5 2.6801,5.7181 c 5.0796,10.8376 17.2501,20.7819 25.4345,20.7819 6.0061,0 6.3854,0.5106 6.3854,8.5948 l 0,7.3809 -77.25,0.2622 c -75.173,0.2551 -77.4516,0.3189 -84.75,2.3749 -8.8662,2.4976 -19.7985,3.3657 -29.5,2.3425 z m -107.1224,-59.3516 c 5.1983,-2.5434 11.8688,-8.7906 16.6607,-15.6037 l 2.4617,-3.5 0.5,-48.7505 c 0.275,-26.8127 0.1496,-48.7502 -0.2788,-48.75 -0.4283,3e-4 -5.2972,2.4562 -10.8198,5.4576 -21.6321,11.7566 -36.2465,25.6904 -44.776,42.6906 -10.0362,20.0033 -10.6691,37.6713 -1.9363,54.0556 8.571,16.0809 23.3573,21.6566 38.1885,14.4004 z M -543,1582.6353 c -19.32777,-2.9687 -44.93769,-12.0381 -62.84267,-22.2548 -26.58676,-15.1705 -45.44662,-33.879 -62.94603,-62.4407 -8.00216,-13.0607 -20.13008,-39.7162 -21.62488,-47.5285 -0.22316,-1.1663 -1.59051,-6.1705 -3.03856,-11.1205 -3.17229,-10.8442 -7.07441,-29.8755 -8.50365,-41.4738 -0.57432,-4.6606 -1.04214,-21.3106 -1.0396,-37 0.006,-36.5429 1.67821,-48.9015 11.46684,-84.7415 6.16927,-22.5881 20.72907,-53.0666 34.53679,-72.2971 28.65177,-39.9042 66.51386,-65.4914 112.49176,-76.0212 14.03322,-3.2139 18.38072,-4.3336 55.83674,-4.7302 10.21772,-0.1081 22.89913,0.08 38.91326,0 l 72.75,0 0,74.6993 0,75.0645 -11,0 -11,0 0,-5.7763 c 0,-13.4789 -4.6924,-38.2349 -9.47297,-49.9771 -14.22098,-34.9301 -41.4677,-58.4466 -75.07712,-64.7987 -27.31531,-5.1626 -56.81505,5.2348 -77.59404,27.3486 -23.00019,24.4776 -35.61767,59.655 -38.93435,108.5485 -2.08924,30.7991 3.35347,82.5834 11.72264,111.5343 5.49692,19.0151 17.7031,44.5749 29.12483,60.9875 8.26531,11.8769 26.03882,29.9498 36.73101,37.3497 14.34864,9.9305 31.50883,17.3553 45.84818,19.8375 8.68581,1.5036 28.15191,0.7123 36.15182,-1.4694 7.10604,-1.938 20.74827,-8.2833 26.88207,-12.5035 11.87135,-8.1677 24.85053,-22.0972 31.64989,-33.9673 1.90742,-3.3299 3.80554,-6.0677 4.21804,-6.0841 0.4125,-0.016 0.75,8.8687 0.75,19.7445 l 0,19.7742 -4.36419,7.6582 c -17.23298,30.2399 -48.52642,54.9597 -85.04006,67.176 -19.45745,6.5099 -51.2177,8.36 -76.59575,4.4619 z m 744,-5.2279 c 0,-8.1164 0.39915,-8.571 7.55366,-8.603 8.35393,-0.037 20.20538,-10.0619 25.76136,-21.7903 l 3.18498,-6.7233 0,-123 c 0,-113.4008 -0.13389,-123.4293 -1.71565,-128.5 -3.59908,-11.5379 -10.10349,-15.7162 -26.03435,-16.724 l -8.75,-0.5534 0,-7.3613 0,-7.3613 66.48317,0 66.48313,0 0.2669,141.25 0.2668,141.25 2.4231,6.5 c 4.312,11.5673 17.6421,22.9629 26.8926,22.9902 6.2023,0.018 7.1843,1.2546 7.1843,9.0449 l 0,6.9649 -85,0 -85,0 z m 74.6276,-369.7269 c -6.67486,-1.5674 -17.8155,-8.1236 -23.33585,-13.7328 -3.17275,-3.2239 -6.79218,-8.4148 -9.04126,-12.9668 -3.73255,-7.5545 -3.75049,-7.6509 -3.75049,-20.1622 0,-12.2197 0.093,-12.7602 3.32389,-19.3225 4.92728,-10.0077 12.65837,-17.8211 22.51972,-22.7596 l 8.15639,-4.0847 13.5594,0.3194 c 13.1854,0.3107 13.7463,0.4144 20.3331,3.7613 12.6206,6.4127 21.7764,18.1931 25.1019,32.2979 2.6666,11.31 1.3045,20.6215 -4.7724,32.6241 -9.0956,17.9649 -32.3107,28.6717 -52.0944,24.0259 z"
       id="path3347"
       inkscape:connector-curvature="0"
       sodipodi:nodetypes="sscssscscsssssssssssscccssscssssssssscsssssccccsccccssscccssssssssssscccsccccccsssssscssscssssscssssssscsscsssscssssscccccccsssssccccccccccccssscssssccccscscsssccssssscsccccccccccccssscsscccscscssscsssssssssssscccccsssssssssssscscsssscscssccccccccscscccssssssscsssss" />
  </g>
</svg>
