<svg width="138" height="62" viewBox="0 0 138 62" fill="none" xmlns="http://www.w3.org/2000/svg">
<path d="M31.9647 41.498H33.4658V61.4139H29.9766V41.498H31.9647Z" fill="#F8D100"/>
<path d="M31.9647 21.4355H33.4658V41.4985H29.9766V21.4355H31.9647Z" fill="#E3000F"/>
<path d="M20.8653 8.57313C21.8768 10.1866 22.7036 10.1492 23.9023 10.1492C22.8909 9.39994 22.2514 8.38583 21.9142 7.89884L20.0385 4.89929C19.8512 3.96277 19.3642 3.09849 18.6498 2.46166C18.8746 2.38673 19.0993 2.27435 19.2117 2.19943C18.0103 2.19943 16.7741 1.60006 16.1372 1.60006C15.7252 1.60006 15.4255 1.86228 15.4255 2.19943C15.4629 2.57404 15.8376 2.94865 16.5493 2.94865C16.6992 2.94865 16.9239 2.91118 17.1487 2.87372C17.5233 3.39818 17.8604 3.88517 17.8604 4.5996C17.8604 5.91341 16.2844 6.92485 14.711 6.92485C14.6361 6.92485 14.5237 6.92485 14.4488 6.92485C14.299 6.5877 13.8495 6.06325 13.8495 5.42374C13.8495 4.37484 14.5237 3.54802 14.5237 2.49912C14.5237 1.86228 14.2241 1.45021 14.0742 1.29769C14.2615 1.11039 14.4863 0.885624 14.5237 0.73578C14.4114 0.773241 14.2615 0.773241 14.0742 0.773241C13.325 0.773241 12.6855 0.585938 12.0861 0.585938C11.749 0.585938 11.6366 0.698319 11.6366 0.810702C11.6366 0.848163 11.6366 0.885623 11.6366 0.885623C11.5242 0.848162 11.3744 0.810702 11.262 0.773241C11.0747 0.73578 10.8874 0.73578 10.7001 0.73578C9.9883 0.73578 9.72608 1.03546 9.72608 1.29769C9.72608 1.52246 9.91338 1.93453 10.1007 2.23421C10.4004 2.08437 10.7375 2.00945 10.8874 2.00945C11.262 2.00945 11.6366 2.38406 11.7864 2.83359C11.5242 2.87105 11.4867 2.87105 11.2245 2.87105C10.5128 2.87105 10.0231 2.60882 9.91071 2.60882L9.87325 2.64628C9.87325 2.75867 10.0605 3.02089 10.4726 3.17073C10.9971 3.35804 11.7864 3.43296 11.8988 3.47042C11.8988 3.50789 11.749 3.73265 11.5991 3.77011C11.5617 3.77011 11.5617 3.77011 11.5242 3.77011C10.9623 3.65773 10.8124 3.62027 10.1355 3.35804C10.098 3.35804 10.098 3.35804 10.098 3.3955C10.098 3.65773 10.8098 4.2571 11.4493 4.51933C10.9248 5.19362 10.2479 5.90806 9.94817 6.95696C9.87325 6.95696 9.76086 6.95696 9.68594 6.95696C8.10991 6.95696 6.53655 5.94552 6.53655 4.63171C6.53655 3.91995 6.83624 3.43029 7.24831 2.90584C7.47307 2.9433 7.69784 2.98076 7.84768 2.98076C8.55944 2.98076 8.93405 2.60615 8.97151 2.23154C8.97151 1.89439 8.70928 1.63216 8.25975 1.63216C7.58546 1.63216 6.38403 2.23154 5.18528 2.23154C5.29767 2.30646 5.52243 2.41884 5.7472 2.49376C5.03544 3.1306 4.54577 3.99487 4.35847 4.9314L2.4881 7.93362C2.18842 8.42061 1.51412 9.39727 0.5 10.1839C1.70142 10.1839 2.4881 10.2214 3.53701 8.60791L4.47353 7.06934C4.54845 7.25665 4.62337 7.44395 4.73575 7.66872L2.82257 10.7057C2.52289 11.1927 1.84859 12.1694 0.834472 12.9561C2.0359 12.9561 2.82257 12.9935 3.87148 11.38L5.52243 8.75508C5.63482 8.86747 5.78466 9.01731 5.89704 9.12969L3.57179 12.8437C3.2721 13.3307 2.59781 14.3073 1.58369 15.094C2.78511 15.094 3.60925 15.1315 4.6207 13.518L6.87102 9.91637C7.02087 9.99129 7.17071 10.1037 7.32055 10.1786L4.58323 14.5669C4.28355 15.0913 3.60925 16.0305 2.59513 16.8172C3.79656 16.8172 4.6207 16.8547 5.63214 15.2412L8.44438 10.703C8.59422 10.778 8.78153 10.8154 8.96883 10.8904L5.78198 15.9904C5.4823 16.4774 4.808 17.4915 3.79388 18.2407C4.9953 18.2407 5.78198 18.2782 6.83089 16.6647L10.2425 11.2275C10.28 11.2275 10.3174 11.2275 10.3549 11.265C10.4298 11.5646 10.5047 11.8269 10.5047 12.1266C10.5047 13.8524 9.3809 15.3509 8.02963 16.5148C8.10456 16.5523 8.2544 16.5523 8.40424 16.5523C8.66647 16.5523 8.85377 16.5523 9.00362 16.5148C8.70393 17.2266 8.02963 18.1283 7.68981 18.6153C7.24028 18.5404 6.60345 18.4655 6.1887 18.4655C5.73917 18.4655 5.70171 18.7277 5.70171 18.9525C5.70171 19.3645 5.88901 19.6642 6.11378 19.8515C6.1887 19.6642 6.37601 19.3645 7.16268 19.3645C7.16268 19.3645 7.20014 19.3645 7.23761 19.3645C7.01284 19.6268 6.26362 20.2261 6.26362 20.7158C6.26362 21.053 6.60077 21.5025 7.08776 21.5025C7.0503 21.3901 7.0503 21.3152 7.0503 21.2403C7.0503 20.8656 7.38745 20.3787 7.68714 20.079C7.68714 20.1914 7.68714 20.1539 7.68714 20.2663C7.68714 21.2028 7.76206 21.6175 8.36143 21.6175C8.66112 21.6175 8.84842 21.4677 8.92334 21.4302C8.54874 21.0931 8.51128 20.7934 8.51128 20.269C8.51128 20.1191 8.51128 20.0067 8.51128 19.8194C8.51128 19.707 8.51127 19.5572 8.47381 19.4448C8.69858 19.4074 8.7735 19.4074 8.92334 19.4074C8.92334 19.4074 9.74748 19.3324 9.97225 19.782C10.197 19.5572 10.5342 19.295 10.5342 18.9578C10.5342 18.7331 10.4218 18.5083 10.0097 18.5083C9.85987 18.5083 9.33541 18.6207 8.88588 18.6207C8.99827 18.3584 9.52272 17.6092 9.97225 17.0821C10.0472 17.3069 10.1596 17.5316 10.3843 17.7189C10.4218 17.3818 10.6091 16.2553 11.171 15.6184C11.2459 16.068 11.3208 16.5175 11.3208 17.4567C11.3208 19.782 10.7589 21.4704 9.59496 21.8075C9.74481 22.0697 10.082 22.332 10.4191 22.332C10.8312 22.332 11.0934 21.845 11.3182 21.3955C11.4305 21.7326 11.8052 22.5567 12.1423 22.5567C12.4795 22.5567 12.8166 21.7326 12.9664 21.3955C13.1912 21.845 13.4534 22.332 13.8655 22.332C14.2027 22.332 14.5398 22.1072 14.6896 21.8075C13.5284 21.4704 12.9638 19.782 12.9638 17.4567C12.9638 16.5202 13.0387 16.068 13.1136 15.6184C13.6755 16.2553 13.8628 17.3818 13.9003 17.7189C14.1251 17.5316 14.2374 17.3069 14.3124 17.0821C14.7619 17.644 15.2863 18.3959 15.3987 18.6207C14.9867 18.6207 14.4622 18.5083 14.2749 18.5083C13.8628 18.5083 13.7504 18.7331 13.7504 18.9578C13.7504 19.295 14.0876 19.5572 14.3124 19.782C14.4997 19.3324 15.3613 19.4074 15.3613 19.4074C15.5111 19.4074 15.6235 19.4074 15.8108 19.4448C15.7733 19.5572 15.7733 19.707 15.7733 19.8194C15.7733 20.0067 15.7733 20.1191 15.7733 20.269C15.7733 20.7934 15.7359 21.0556 15.3613 21.4302C15.4362 21.4677 15.6235 21.6175 15.9232 21.6175C16.5226 21.6175 16.5975 21.2055 16.5975 20.2663C16.5975 20.1539 16.5975 20.1539 16.5975 20.079C16.8972 20.4161 17.2343 20.8656 17.2343 21.2403C17.2343 21.3152 17.2343 21.3901 17.1968 21.5025C17.6464 21.5025 18.021 21.0155 18.021 20.7158C18.021 20.2288 17.2718 19.6294 17.047 19.3645C17.0845 19.3645 17.1219 19.3645 17.1219 19.3645C17.9461 19.3645 18.0959 19.6268 18.1708 19.8515C18.3956 19.6642 18.5829 19.3645 18.5829 18.9525C18.5829 18.7277 18.5454 18.4655 18.0959 18.4655C17.6838 18.4655 17.047 18.5404 16.5948 18.6153C16.2576 18.1283 15.5834 17.2266 15.281 16.5148C15.3934 16.5523 15.5807 16.5523 15.8804 16.5523C16.0302 16.5523 16.1801 16.5523 16.255 16.5148C14.9037 15.3535 13.7799 13.815 13.7799 12.1266C13.7799 11.8643 13.8548 11.5646 13.9297 11.265C13.9672 11.265 14.0046 11.265 14.0421 11.2275L17.4537 16.6647C18.4652 18.2782 19.292 18.2407 20.4907 18.2407C19.5167 17.4915 18.8398 16.4774 18.5026 15.9904L15.3158 10.8904C15.5031 10.8529 15.6529 10.778 15.8402 10.703L18.6525 15.2412C19.6639 16.8547 20.4907 16.8172 21.6895 16.8172C20.678 16.0305 20.0385 15.0913 19.7014 14.5669L16.9641 10.1786C17.1139 10.1037 17.2637 9.99129 17.4136 9.91637L19.6639 13.518C20.6754 15.1315 21.5022 15.094 22.7009 15.094C21.6895 14.3073 21.05 13.3681 20.7128 12.8437L18.3876 9.12969C18.5374 9.01731 18.6498 8.86747 18.7622 8.75508L20.4131 11.38C21.4246 12.9935 22.2514 12.9561 23.4501 12.9561C22.4387 12.1694 21.7992 11.2302 21.462 10.7057L19.5489 7.66872C19.6612 7.48141 19.7362 7.29411 19.8111 7.06934L20.8653 8.57313ZM5.60003 5.04646C5.60003 3.92263 6.42417 3.02089 6.72386 2.75867C6.79878 2.75867 6.8737 2.79613 6.94862 2.79613C6.64893 3.17074 6.08702 3.80757 6.08702 4.63439C6.08702 6.28534 7.85036 7.74631 9.87592 7.74631C9.87592 7.89616 9.83846 8.046 9.83846 8.19584C9.83846 8.45807 9.83846 8.68284 9.87592 8.87014C7.62559 8.91028 5.60003 7.07202 5.60003 5.04646ZM8.71196 18.6983V18.7357H8.74942C9.38625 18.7357 9.68594 18.6983 9.91071 18.6608C10.0231 18.6608 10.098 18.6233 10.1729 18.6233C10.3228 18.6233 10.4726 18.6233 10.4726 18.8481C10.4726 18.998 10.3228 19.1853 10.1729 19.3351C9.94817 19.1103 9.61102 19.0729 9.12403 19.0729C8.89926 19.0729 8.59958 19.1103 8.44973 19.1478H8.41227H8.37481V19.2227C8.37481 19.3726 8.41227 19.5224 8.41227 19.7472V19.9345V20.1967C8.41227 20.7212 8.48719 21.0583 8.6745 21.2831C8.63704 21.2831 8.56211 21.3205 8.48719 21.3205C8.15005 21.3205 8.03766 21.1707 8.03766 20.1967C8.03766 20.0094 8.03766 19.8221 8.03766 19.7097V19.5224L8.0002 19.5599C7.51321 19.9345 6.98876 20.6088 6.9513 21.1359C6.80145 21.0235 6.65161 20.8362 6.65161 20.6489C6.65161 20.3867 7.06368 19.9372 7.55067 19.4876L7.8129 19.2254L7.85036 19.1879L7.77544 19.1505C7.66305 19.113 7.47575 19.0756 7.32591 19.0756C6.80145 19.0756 6.42684 19.1879 6.23954 19.4127C6.16462 19.3003 6.0897 19.0381 6.0897 18.8882C6.0897 18.7759 6.12716 18.7384 6.16462 18.7009C6.20208 18.6635 6.277 18.6635 6.35192 18.6635C6.9513 18.6635 7.66573 18.7759 7.92796 18.8133C7.96542 18.7384 9.12938 17.2373 9.42907 16.4132C9.50399 16.3757 9.54145 16.3757 9.69129 16.3757C9.91606 16.3757 9.99098 16.5255 10.0284 16.7503C9.31401 17.5718 8.86448 18.2487 8.71196 18.6983ZM14.8636 16.2981C14.976 16.2981 15.0509 16.3356 15.1258 16.3356C15.4255 17.1597 16.552 18.6608 16.6269 18.7357C16.8891 18.6983 17.6383 18.5859 18.2029 18.5859C18.2779 18.5859 18.3528 18.5859 18.3902 18.6233C18.4277 18.6608 18.4652 18.7357 18.4652 18.8107C18.4652 18.9605 18.3902 19.2227 18.3153 19.3351C18.0906 19.1103 17.7534 18.998 17.229 18.998C17.0791 18.998 16.8543 19.0354 16.7794 19.0729H16.742H16.7018L17.0015 19.3726C17.4885 19.8596 17.9006 20.2716 17.9006 20.5338C17.9006 20.6837 17.7507 20.9085 17.6009 21.0208C17.5634 20.4964 17.039 19.8194 16.552 19.4448L16.5145 19.4074V19.5947C16.5145 19.707 16.5145 19.8943 16.5145 20.0816C16.5145 21.0556 16.4021 21.2055 16.065 21.2055C16.0275 21.2055 15.9526 21.2055 15.8777 21.168C16.065 20.9432 16.1399 20.6436 16.1399 20.0816V19.8194V19.6321C16.1399 19.4073 16.1774 19.2575 16.1774 19.1077V19.0327H16.1399C15.9901 18.9953 15.6904 18.9578 15.4656 18.9578C14.9786 18.9578 14.6789 18.9953 14.4167 19.22C14.2669 19.1077 14.117 18.8829 14.117 18.7331C14.117 18.5457 14.2294 18.5083 14.4167 18.5083C14.4916 18.5083 14.5666 18.5083 14.6789 18.5457C14.8662 18.5832 15.2034 18.6207 15.8402 18.6207H15.8777V18.5832C15.7278 18.1337 15.2783 17.4594 14.5639 16.5951C14.5639 16.4479 14.6388 16.2981 14.8636 16.2981ZM12.2012 3.05835C12.1263 2.75867 11.9764 2.45898 11.7891 2.23421C11.6018 2.00945 11.3396 1.78468 10.9275 1.78468C10.7402 1.78468 10.4405 1.85961 10.2532 1.93453C10.1783 1.82214 10.0284 1.485 10.0284 1.33515C10.0284 1.18531 10.2907 1.03547 10.7402 1.03547C11.7516 1.03547 12.3912 1.485 12.3912 2.27435C12.4259 2.57136 12.3136 2.83359 12.2012 3.05835ZM12.6882 2.04691C12.6507 1.82214 12.5758 1.63484 12.4259 1.44754C12.4259 1.26023 12.5009 1.03547 12.838 1.22277C12.6507 1.41007 12.8005 1.70976 12.8005 1.70976C12.8005 1.70976 13.1752 1.55992 13.1002 1.29769C13.6274 1.44486 13.2126 2.15929 12.6882 2.04691ZM14.6763 8.91028C14.7137 8.68551 14.7137 8.46075 14.7137 8.23598C14.7137 8.1236 14.7137 7.97375 14.7137 7.78645C16.7018 7.74899 18.4277 6.3228 18.4277 4.67452C18.4277 3.85039 17.8658 3.21087 17.5661 2.83626C17.641 2.83626 17.7159 2.7988 17.7909 2.7988C18.0906 3.06103 18.9147 3.96009 18.9147 5.08659C18.9147 7.03456 16.9266 8.87282 14.6763 8.91028Z" fill="#383838"/>
<path d="M33.4642 1.59766V21.5482H31.9631H29.9375V1.59766H33.4642Z" fill="black"/>
<path d="M93.4735 1.36914C92.8741 1.36914 92.462 1.55645 92.272 1.96852C92.1222 2.23074 92.0473 2.68027 92.0473 3.28232V3.91916H91.2231V4.55599H92.0473V9.5811H92.9463V4.55599H93.9203V3.91916H92.9463V3.09502C92.9463 2.79533 92.9838 2.53311 93.0212 2.42072C93.1336 2.23342 93.3209 2.12103 93.5832 2.12103C93.733 2.12103 93.8454 2.12103 93.9203 2.12103V1.40928C93.7731 1.36914 93.6608 1.36914 93.4735 1.36914ZM40.8195 1.4066V9.54364H42.8076C43.6318 9.54364 44.2338 9.39379 44.6084 9.05665C45.0205 8.7195 45.2453 8.12013 45.2453 7.29331C45.2453 6.7314 45.1703 6.28187 44.983 5.9795C44.7957 5.64235 44.4211 5.38013 43.8967 5.26775C44.3462 5.11791 44.6834 4.89314 44.8332 4.59345C45.0205 4.33123 45.0954 3.91916 45.0954 3.43217C45.0954 2.72041 44.9081 2.19328 44.571 1.85613C44.2338 1.55645 43.7094 1.36914 42.9575 1.36914H40.8195V1.4066ZM60.5079 1.4066V4.40615C60.2082 3.95662 59.7961 3.73185 59.2315 3.73185C58.5573 3.73185 58.0703 4.03154 57.8054 4.66837C57.6181 5.1179 57.5057 5.75474 57.5057 6.61901C57.5057 7.51807 57.5806 8.23251 57.7679 8.64458C58.0301 9.28141 58.5171 9.61856 59.269 9.61856C59.8309 9.61856 60.2805 9.35633 60.5828 8.86934V9.50618H61.4444C61.407 8.98173 61.407 8.64458 61.407 8.45727V1.4066H60.5079ZM95.6863 1.52166V2.60803H96.5105V1.52166H95.6863ZM97.4122 1.52166V2.60803H98.2738V1.52166H97.4122ZM41.7935 2.19595H42.73C43.217 2.19595 43.5542 2.27088 43.7789 2.45818C44.0412 2.64549 44.1535 3.0201 44.1535 3.50709C44.1535 4.48107 43.704 4.97074 42.7648 4.97074H41.7534V2.19595H41.7935ZM86.875 2.45818L85.9759 2.87025V3.91916H85.1143V4.55599H85.9759V8.23251C85.9759 8.75696 86.0509 9.09411 86.2007 9.28141C86.388 9.50618 86.7252 9.61856 87.2496 9.61856C87.3994 9.61856 87.6242 9.61856 87.9239 9.5811V8.86934C87.6991 8.9068 87.5493 8.9068 87.5118 8.9068C87.2496 8.9068 87.0998 8.86934 86.9874 8.75696C86.9125 8.64458 86.8375 8.41981 86.8375 8.12012V4.55599H87.849V3.91916H86.8375V2.45551H86.875V2.45818ZM54.5463 3.76931C53.872 3.76931 53.385 4.069 53.0826 4.66837V3.88169H52.1836C52.221 4.21884 52.221 4.63091 52.221 5.12058V9.54631H53.1201V6.1347C53.1201 5.68517 53.195 5.31056 53.3823 4.97341C53.6071 4.5988 53.8693 4.4115 54.2814 4.4115C54.656 4.4115 54.9182 4.56134 55.068 4.89849C55.143 5.0858 55.1804 5.42294 55.1804 5.90993V9.54899H56.0795V5.53533C56.0474 4.37136 55.5577 3.76931 54.5463 3.76931ZM64.8962 3.76931C64.0346 3.76931 63.4325 4.10646 63.1703 4.78076C62.983 5.23029 62.9081 5.94204 62.9081 6.95616C62.9081 7.85522 63.0204 8.49473 63.2452 8.86934C63.5449 9.3938 64.0694 9.65602 64.8587 9.65602C66.0601 9.65602 66.697 9.01919 66.7719 7.7803H65.9103C65.8728 8.60444 65.5357 9.01919 64.8988 9.01919C64.4493 9.01919 64.1871 8.83188 64.0372 8.45727C63.9249 8.19505 63.8874 7.78298 63.8874 7.21839V6.84378H66.8495V6.58155C66.8495 5.68249 66.7746 5.04298 66.5873 4.66837C66.2474 4.07168 65.723 3.76931 64.8962 3.76931ZM69.659 3.76931C69.1721 3.76931 68.76 3.88169 68.4576 4.14392C68.1205 4.40615 67.9706 4.78076 67.9706 5.26775C67.9706 5.71728 68.1205 6.05443 68.4202 6.31665C68.57 6.4665 68.9072 6.6538 69.4316 6.95349C69.8062 7.17825 70.0684 7.3281 70.1808 7.44048C70.3681 7.62778 70.4431 7.85255 70.4431 8.1897C70.4431 8.78907 70.1434 9.0513 69.5815 9.0513C69.0945 9.0513 68.7948 8.75161 68.7573 8.15224C68.7573 8.03985 68.7573 7.96493 68.7573 7.85255H67.8583C67.8208 9.09143 68.4202 9.69081 69.5841 9.69081C70.7855 9.69081 71.3475 9.1289 71.3475 8.03985C71.3475 7.62778 71.1976 7.25317 70.9354 6.99095C70.7481 6.80364 70.4484 6.61634 69.9989 6.35411C69.5868 6.12935 69.3246 5.9795 69.2122 5.86712C68.9874 5.67982 68.875 5.45505 68.875 5.19283C68.875 4.96806 68.95 4.78076 69.0998 4.63091C69.2497 4.48107 69.437 4.40615 69.6617 4.40615C70.1862 4.40615 70.4484 4.7433 70.4484 5.45505H71.3475C71.3475 4.89314 71.1976 4.44361 70.9354 4.17871C70.6732 3.92183 70.2611 3.76931 69.659 3.76931ZM74.4219 3.76931C73.86 3.76931 73.4479 3.88169 73.1081 4.10646C72.7335 4.36869 72.5462 4.7433 72.5462 5.26775V5.30521H73.4453V5.26775C73.4453 5.00552 73.5202 4.78076 73.7075 4.63091C73.8948 4.48107 74.1196 4.40615 74.3818 4.40615C74.7564 4.40615 75.0186 4.55599 75.131 4.85568C75.2059 5.04298 75.2434 5.34267 75.2434 5.82966V6.09189C74.3069 6.09189 73.6299 6.20427 73.2178 6.39157C72.6185 6.6538 72.2813 7.21571 72.2813 8.00507C72.2813 8.49206 72.3937 8.90413 72.6185 9.20649C72.8807 9.50618 73.2553 9.69348 73.7423 9.69348C74.3791 9.69348 74.8661 9.43126 75.2809 8.86934V9.61856H76.1425C76.105 9.09411 76.0675 8.49474 76.0675 7.81776V5.71728C76.0675 5.04298 75.9552 4.59345 75.6929 4.29109C75.511 3.92183 75.0614 3.76931 74.4219 3.76931ZM79.9742 3.76931C79.3748 3.76931 78.9253 4.069 78.6229 4.63091V3.88169H77.7238C77.7613 4.18138 77.7613 4.51853 77.7613 4.85568V9.54364H78.6604V6.0571C78.6604 5.60757 78.7353 5.1955 78.8851 4.93328C79.0724 4.59613 79.3347 4.44628 79.6718 4.44628C80.009 4.44628 80.2712 4.59613 80.3461 4.85836C80.421 5.0082 80.421 5.27042 80.421 5.68249V9.54631H81.3201V5.98218C81.3201 4.97074 81.6572 4.44361 82.3315 4.44361C82.6687 4.44361 82.8934 4.59345 83.0058 4.85568C83.0807 5.04298 83.1182 5.30521 83.1182 5.71728V9.54364H84.0173V5.67982C84.0173 5.00552 83.9049 4.55599 83.7176 4.25363C83.4928 3.91648 83.1182 3.72918 82.6312 3.72918C82.0318 3.72918 81.5448 4.02887 81.2425 4.59078C81.0605 4.07168 80.611 3.76931 79.9742 3.76931ZM102.812 3.76931C102.175 3.76931 101.688 4.069 101.386 4.63091V3.88169H100.524C100.562 4.18138 100.562 4.51853 100.562 4.89314V9.54364H101.461V6.01964C101.461 5.57011 101.573 5.23296 101.798 4.97074C102.023 4.70851 102.322 4.55867 102.772 4.55867C102.809 4.55867 102.884 4.55867 102.959 4.59613C102.924 4.07167 102.887 3.76931 102.812 3.76931ZM46.7464 3.88437V7.89804C46.7464 9.05933 47.2708 9.66137 48.2849 9.66137C48.8843 9.66137 49.3713 9.39915 49.7111 8.83723V9.54899H50.6102C50.5727 9.17438 50.5727 8.76231 50.5727 8.31011V3.88437H49.6737V7.33345C49.6737 8.41981 49.2991 8.9844 48.5498 8.9844C48.1378 8.9844 47.913 8.83456 47.7632 8.49741C47.6882 8.31011 47.6508 7.97296 47.6508 7.52343V3.88437H46.7464ZM95.0495 3.88437V7.89804C95.0495 9.05933 95.5739 9.66137 96.5881 9.66137C97.1874 9.66137 97.6744 9.39915 98.0142 8.83723V9.54899H98.9133C98.8759 9.17438 98.8759 8.76231 98.8759 8.31011V3.88437H97.9768V7.33345C97.9768 8.41981 97.6022 8.9844 96.853 8.9844C96.4409 8.9844 96.1787 8.83456 96.0663 8.49741C95.9914 8.31011 95.9539 7.97296 95.9539 7.52343V3.88437H95.0495ZM64.8962 4.40882C65.3457 4.40882 65.6454 4.63359 65.7578 5.08312C65.8327 5.30789 65.8701 5.68249 65.8701 6.24441H63.8071C63.8071 6.01964 63.8071 5.75741 63.8446 5.49519C63.9222 4.78343 64.2593 4.40882 64.8962 4.40882ZM59.459 4.40882C59.9085 4.40882 60.2082 4.67105 60.358 5.12058C60.4704 5.45773 60.5454 5.98218 60.5454 6.77153C60.5454 7.48329 60.5079 7.97296 60.3955 8.27265C60.2457 8.75964 59.9085 8.9844 59.459 8.9844C59.0469 8.9844 58.7472 8.75964 58.5974 8.27265C58.485 7.9355 58.4101 7.37359 58.4101 6.62169C58.4101 5.9474 58.4475 5.42027 58.5599 5.12058C58.7472 4.67105 59.0469 4.40882 59.459 4.40882ZM41.7935 5.71995H42.805C43.3294 5.71995 43.704 5.83234 43.9288 6.09456C44.1535 6.35679 44.2659 6.7314 44.2659 7.29599C44.2659 7.89536 44.1161 8.30743 43.8539 8.53487C43.6291 8.72218 43.217 8.7971 42.6524 8.7971H41.7908L41.7935 5.71995ZM75.024 6.69661H75.2487V7.37091C75.2487 7.82044 75.1738 8.15759 75.024 8.45727C74.8367 8.83188 74.4995 9.01919 74.0875 9.01919C73.5255 9.01919 73.2633 8.64458 73.2633 7.93282C73.2606 7.10868 73.8226 6.69661 75.024 6.69661ZM40.0703 13.4101L42.2083 21.5472H43.3695L45.5075 13.4101H44.571L42.8076 20.6481L41.0818 13.4101H40.0703ZM54.6961 13.4101V20.4608C54.6961 20.6856 54.6961 21.0227 54.6586 21.5472H55.5202V20.9103C55.8199 21.3973 56.2695 21.6596 56.8715 21.6596C57.6207 21.6596 58.1104 21.3224 58.3726 20.6481C58.5225 20.1986 58.6349 19.5617 58.6349 18.66C58.6349 17.7984 58.5599 17.1589 58.4101 16.7468C58.1479 16.11 57.6983 15.7728 56.9839 15.7728C56.422 15.7728 55.9725 15.9976 55.6326 16.4846V13.4101H54.6961ZM78.6978 13.4101V21.5472H79.5969V18.0981C79.5969 16.9743 79.9715 16.4097 80.7582 16.4097C81.1328 16.4097 81.395 16.5595 81.5448 16.8967C81.6198 17.084 81.6572 17.4211 81.6572 17.9081V21.5472H82.5563V17.5335C82.5563 16.3321 82.0693 15.7327 81.0552 15.7327C80.4558 15.7327 80.0063 15.9949 79.629 16.5194V13.4075H78.6978V13.4101ZM101.8 13.4101V21.5472H102.7V18.0981C102.7 16.9743 103.074 16.4097 103.861 16.4097C104.235 16.4097 104.498 16.5595 104.647 16.8967C104.722 17.084 104.76 17.4211 104.76 17.9081V21.5472H105.659V17.5335C105.659 16.3321 105.172 15.7327 104.158 15.7327C103.558 15.7327 103.109 15.9949 102.732 16.5194V13.4075H101.8V13.4101ZM136.567 13.4101V16.4097C136.267 15.9602 135.855 15.7354 135.29 15.7354C134.616 15.7354 134.129 16.0351 133.864 16.6719C133.677 17.1214 133.565 17.7583 133.565 18.6225C133.565 19.5216 133.64 20.1986 133.827 20.6481C134.089 21.2849 134.576 21.6221 135.328 21.6221C135.89 21.6221 136.339 21.3599 136.642 20.8729V21.5472H137.503C137.466 21.0227 137.466 20.6856 137.466 20.4608V13.4101H136.567ZM113.951 14.4216L113.052 14.8337V15.8826H112.191V16.5568H113.052V20.2334C113.052 20.7578 113.127 21.095 113.277 21.3197C113.464 21.5445 113.801 21.6569 114.326 21.6569C114.476 21.6569 114.7 21.6569 114.963 21.6194V20.9077C114.738 20.9451 114.588 20.9451 114.551 20.9451C114.288 20.9451 114.138 20.9077 114.026 20.7953C113.951 20.6829 113.876 20.4956 113.876 20.1584V16.5943H114.888V15.92H113.876V14.4189H113.951V14.4216ZM47.9451 15.7354C47.0835 15.7354 46.4815 16.0725 46.2192 16.7468C46.0319 17.1964 45.957 17.9081 45.957 18.9222C45.957 19.8213 46.0694 20.4608 46.2942 20.8354C46.5939 21.3599 47.1183 21.6596 47.9077 21.6596C49.1091 21.6596 49.7459 21.0227 49.8208 19.7464H48.9592C48.9218 20.5705 48.5846 20.9853 47.9478 20.9853C47.4983 20.9853 47.236 20.798 47.0862 20.4233C46.9738 20.1611 46.9364 19.7491 46.9364 19.1845V18.8099H49.8984V18.5476C49.8984 17.6486 49.8235 17.0091 49.6362 16.6344C49.2964 16.0351 48.7693 15.7354 47.9451 15.7354ZM65.0835 15.7354C64.5216 15.7354 64.1095 15.8478 63.7697 16.0725C63.3951 16.3348 63.2078 16.7094 63.2078 17.2338V17.3087H64.1068V17.2338C64.1068 16.9716 64.1817 16.7468 64.369 16.597C64.5563 16.4471 64.7811 16.3722 65.0433 16.3722C65.4179 16.3722 65.6802 16.5221 65.83 16.8218C65.9049 17.0091 65.9424 17.3087 65.9424 17.7957V18.058C65.0059 18.058 64.3289 18.1703 63.9543 18.3576C63.3549 18.6199 63.0178 19.1818 63.0178 19.9711C63.0178 20.4581 63.1302 20.8702 63.3549 21.1726C63.6171 21.4722 63.9918 21.6596 64.4787 21.6596C65.1156 21.6596 65.6026 21.3973 66.0173 20.8354V21.5846H66.8789C66.8415 21.0602 66.8415 20.4608 66.8415 19.7838V17.6834C66.8415 17.0091 66.7291 16.5595 66.4668 16.2572C66.21 15.8852 65.7604 15.7354 65.0835 15.7354ZM75.6983 15.7354C74.8741 15.7354 74.3095 16.0725 74.0099 16.7094C73.8226 17.1214 73.7102 17.8332 73.7102 18.8099C73.7102 19.7865 73.8226 20.4983 74.0473 20.8729C74.3096 21.3973 74.8715 21.6596 75.6608 21.6596C76.8221 21.6596 77.4242 21.0227 77.4242 19.7838H76.5626C76.5626 20.1584 76.4876 20.4581 76.3752 20.6454C76.2254 20.9077 76.0006 21.02 75.626 21.02C75.214 21.02 74.9517 20.8327 74.8019 20.4581C74.6895 20.121 74.6146 19.5591 74.6146 18.6948C74.6146 17.9456 74.652 17.4184 74.727 17.1188C74.8768 16.6318 75.1765 16.3695 75.626 16.3695C76.2254 16.3695 76.4876 16.7816 76.4876 17.571H77.3492C77.3492 16.9341 77.2369 16.4846 76.9746 16.1822C76.8221 15.8852 76.3726 15.7354 75.6983 15.7354ZM86.0107 15.7354C85.1491 15.7354 84.5471 16.0725 84.2848 16.7468C84.0975 17.1964 84.0226 17.9081 84.0226 18.9222C84.0226 19.8213 84.135 20.4608 84.3598 20.8354C84.6595 21.3599 85.1839 21.6596 85.9733 21.6596C87.1747 21.6596 87.8115 21.0227 87.8864 19.7464H87.0248C86.9874 20.5705 86.6502 20.9853 86.0134 20.9853C85.5639 20.9853 85.3016 20.798 85.1518 20.4233C85.0394 20.1611 85.002 19.7491 85.002 19.1845V18.8099H87.964V18.5476C87.964 17.6486 87.8891 17.0091 87.7018 16.6344C87.362 16.0351 86.8001 15.7354 86.0107 15.7354ZM94.038 15.7354C93.5511 15.7354 93.139 15.8478 92.8366 16.11C92.4995 16.3722 92.3496 16.7468 92.3496 17.2338C92.3496 17.6834 92.4995 18.0205 92.7617 18.2827C92.9115 18.4326 93.2487 18.6199 93.7732 18.9196C94.1478 19.1443 94.41 19.2942 94.5224 19.4066C94.7097 19.5939 94.7846 19.8561 94.7846 20.1558C94.7846 20.7551 94.4849 21.0174 93.923 21.0174C93.436 21.0174 93.1363 20.7177 93.0989 20.1183C93.0989 20.0059 93.0989 19.931 93.0989 19.8186H92.1998C92.1623 21.0575 92.7617 21.6569 93.9257 21.6569C95.1271 21.6569 95.689 21.095 95.689 20.0059C95.689 19.5939 95.5392 19.2192 95.2769 18.957C95.0896 18.7697 94.7899 18.5824 94.3404 18.3202C93.9283 18.0954 93.6661 17.9456 93.5537 17.8332C93.329 17.6459 93.2166 17.4211 93.2166 17.1964C93.2166 16.9716 93.2915 16.7843 93.4413 16.6344C93.5912 16.4846 93.7785 16.4097 94.0033 16.4097C94.5277 16.4097 94.7899 16.7468 94.7899 17.4586H95.689C95.689 16.8967 95.5392 16.4846 95.2769 16.1822C95.0495 15.8852 94.6374 15.7354 94.038 15.7354ZM98.8009 15.7354C97.9768 15.7354 97.3747 16.0725 97.1125 16.7094C96.9252 17.1214 96.8503 17.8332 96.8503 18.8099C96.8503 19.7865 96.9627 20.4983 97.15 20.8729C97.4122 21.3973 97.9741 21.6596 98.8009 21.6596C99.9622 21.6596 100.564 21.0227 100.564 19.7838H99.7027C99.7027 20.1584 99.6277 20.4581 99.5154 20.6454C99.3655 20.9077 99.1408 21.02 98.7661 21.02C98.3541 21.02 98.0919 20.8327 97.942 20.4581C97.8296 20.121 97.7547 19.5591 97.7547 18.6948C97.7547 17.9456 97.7922 17.4184 97.8671 17.1188C98.0169 16.6318 98.3166 16.3695 98.7661 16.3695C99.3655 16.3695 99.6277 16.7816 99.6277 17.571H100.489C100.489 16.9341 100.377 16.4846 100.115 16.1822C99.9248 15.8852 99.4752 15.7354 98.8009 15.7354ZM130.603 15.7354C129.928 15.7354 129.441 16.0351 129.139 16.6344V15.8478H128.277C128.315 16.1849 128.315 16.597 128.315 17.0867V21.5124H129.214V18.1008C129.214 17.6512 129.289 17.2766 129.476 16.9395C129.701 16.5649 129.963 16.3776 130.375 16.3776C130.75 16.3776 131.012 16.5274 131.162 16.8646C131.237 17.0519 131.274 17.389 131.274 17.876V21.5151H132.173V17.4586C132.066 16.3348 131.577 15.7354 130.603 15.7354ZM53.5321 15.7354C52.8953 15.7354 52.4083 16.0351 52.106 16.597V15.8478H51.2444C51.2818 16.1475 51.2818 16.4846 51.2818 16.8967V21.5472H52.1809V18.0232C52.1809 17.5736 52.2933 17.2365 52.518 16.9743C52.7428 16.712 53.0425 16.5997 53.492 16.5997C53.5295 16.5997 53.6044 16.5997 53.6793 16.6371C53.6071 16.0351 53.5696 15.7354 53.5321 15.7354ZM62.3462 15.7354C61.7093 15.7354 61.2223 16.0351 60.92 16.597V15.8478H60.0584C60.0958 16.1475 60.0958 16.4846 60.0958 16.8967V21.5472H60.9949V18.0232C60.9949 17.5736 61.1073 17.2365 61.332 16.9743C61.5568 16.712 61.8565 16.5997 62.306 16.5997C62.3435 16.5997 62.4184 16.5997 62.4933 16.6371C62.4211 16.0351 62.3836 15.7354 62.3462 15.7354ZM91.563 15.7354C90.9261 15.7354 90.4391 16.0351 90.1368 16.597V15.8478H89.2752C89.3126 16.1475 89.3126 16.4846 89.3126 16.8967V21.5472H90.2117V18.0232C90.2117 17.5736 90.3241 17.2365 90.5488 16.9743C90.7736 16.712 91.0733 16.5997 91.5228 16.5997C91.5603 16.5997 91.6352 16.5997 91.7101 16.6371C91.6379 16.0351 91.6379 15.7354 91.563 15.7354ZM68.4978 15.8478V19.8614C68.4978 21.0227 68.9848 21.6248 69.9989 21.6248C70.5982 21.6248 71.0852 21.3625 71.4251 20.8006V21.5124H72.3241C72.2867 21.1378 72.2867 20.6883 72.2867 20.2735V15.8478H71.3876V19.2968C71.3876 20.3832 71.013 20.9478 70.2638 20.9478C69.8517 20.9478 69.5895 20.798 69.4771 20.4608C69.4022 20.2735 69.3647 19.9364 69.3647 19.4868V15.8478H68.4978ZM107.313 15.8478V19.8614C107.313 21.0227 107.837 21.6248 108.851 21.6248C109.451 21.6248 109.938 21.3625 110.277 20.8006V21.5124H111.176C111.139 21.1378 111.139 20.6883 111.139 20.2735V15.8478H110.24V19.2968C110.24 20.3832 109.865 20.9478 109.116 20.9478C108.704 20.9478 108.442 20.798 108.329 20.4608C108.254 20.2735 108.217 19.9364 108.217 19.4868V15.8478H107.313ZM115.789 15.8478V16.5221H117.89L115.677 20.8354V21.5472H118.864V20.8729H116.614L118.826 16.5595V15.8478H115.789ZM122.803 15.8478V19.8614C122.803 21.0227 123.327 21.6248 124.341 21.6248C124.941 21.6248 125.428 21.3625 125.767 20.8006V21.5124H126.666C126.629 21.1378 126.629 20.6883 126.629 20.2735V15.8478H125.692V19.2968C125.692 20.3832 125.318 20.9478 124.569 20.9478C124.157 20.9478 123.932 20.798 123.782 20.4608C123.707 20.2735 123.67 19.9364 123.67 19.4868V15.8478H122.803ZM47.9451 16.3722C48.3947 16.3722 48.6943 16.597 48.8067 17.0465C48.8816 17.2713 48.9191 17.6459 48.9191 18.2078H46.8561C46.8561 17.983 46.8561 17.7208 46.8935 17.4586C46.9711 16.7468 47.3457 16.3722 47.9451 16.3722ZM85.9733 16.3722C86.4228 16.3722 86.7225 16.597 86.8349 17.0465C86.9098 17.2713 86.9472 17.6459 86.9472 18.2078H84.8842C84.8842 17.983 84.8842 17.7208 84.9217 17.4586C85.0367 16.7468 85.3739 16.3722 85.9733 16.3722ZM56.6842 16.3722C57.1337 16.3722 57.4334 16.6344 57.5833 17.1964C57.6582 17.496 57.6957 17.9456 57.6957 18.5476C57.6957 19.5216 57.5833 20.1611 57.3585 20.4983C57.1712 20.798 56.9464 20.9103 56.6467 20.9103C56.2347 20.9103 55.935 20.723 55.7477 20.3484C55.5978 20.0487 55.5229 19.4868 55.5229 18.66C55.5229 17.686 55.6353 17.0465 55.8601 16.7468C56.0848 16.5221 56.3471 16.3722 56.6842 16.3722ZM135.515 16.3722C135.965 16.3722 136.264 16.597 136.414 17.084C136.527 17.4211 136.602 17.983 136.602 18.7349C136.602 19.4467 136.564 19.9364 136.452 20.236C136.302 20.723 135.965 20.9478 135.478 20.9478C135.066 20.9478 134.804 20.723 134.616 20.236C134.504 19.8989 134.429 19.337 134.429 18.6225C134.429 17.9483 134.466 17.4211 134.579 17.1214C134.766 16.6344 135.066 16.3722 135.515 16.3722ZM65.723 18.66H65.9477V19.3343C65.9477 19.7838 65.8728 20.1584 65.723 20.4207C65.5357 20.7953 65.1985 20.9451 64.7865 20.9451C64.2245 20.9451 63.9623 20.5705 63.9623 19.8588C63.9596 19.0721 64.5216 18.66 65.723 18.66ZM40.8195 25.3735V33.5106H44.3435V32.7239H41.7935V25.3361H40.8195V25.3735ZM50.5701 25.3735V32.4242C50.5701 32.649 50.5701 32.9861 50.5326 33.5106H51.3942V32.8363C51.6939 33.3233 52.1434 33.5855 52.7455 33.5855C53.4947 33.5855 53.9843 33.2483 54.2466 32.5741C54.3964 32.1245 54.5088 31.4502 54.5088 30.5485C54.5088 29.6869 54.4339 29.0474 54.284 28.6728C54.0218 28.0359 53.5723 27.6988 52.8578 27.6988C52.2959 27.6988 51.8464 27.9235 51.5066 28.4105V25.3735H50.5701ZM93.2112 25.3735V33.5106H94.1103V25.3735H93.6608H93.2112ZM107.575 25.3735V33.5106H108.474V30.0615C108.474 28.9377 108.848 28.3731 109.598 28.3731C109.972 28.3731 110.235 28.5604 110.384 28.8601C110.459 29.0474 110.497 29.3845 110.497 29.8715V33.5106H111.396V29.4969C111.396 28.2955 110.909 27.7336 109.895 27.7336C109.295 27.7336 108.846 27.9958 108.469 28.5202V25.4083H107.575V25.3735ZM121.601 25.3735V33.5106H122.5V30.0615C122.5 28.9377 122.875 28.3731 123.662 28.3731C124.036 28.3731 124.298 28.5604 124.448 28.8601C124.523 29.0474 124.561 29.3845 124.561 29.8715V33.5106H125.46V29.4969C125.46 28.2955 124.973 27.7336 123.959 27.7336C123.359 27.7336 122.91 27.9958 122.532 28.5202V25.4083H121.596V25.3735H121.601ZM78.8851 25.4859V26.4599H79.8591V25.4859H78.8851ZM100.224 25.4859V26.4599H101.198V25.4859H100.224ZM132.141 25.4859V26.4599H133.115V25.4859H132.141ZM82.674 26.385L81.775 26.797V27.846H80.9134V28.4828H81.775V32.1593C81.775 32.6838 81.8499 33.0209 81.9997 33.2082C82.187 33.433 82.5242 33.5454 83.0486 33.5454C83.1985 33.5454 83.4232 33.5454 83.7229 33.5079V32.7961C83.4982 32.8336 83.3483 32.8336 83.3109 32.8336C83.0486 32.8336 82.8988 32.7961 82.8239 32.6838C82.7489 32.5714 82.674 32.3466 82.674 32.0469V28.4828H83.6855V27.846H82.674V26.385ZM85.9733 26.385L85.0742 26.797V27.846H84.2126V28.4828H85.0742V32.1593C85.0742 32.6838 85.1491 33.0209 85.299 33.2082C85.4863 33.433 85.8234 33.5454 86.3479 33.5454C86.4977 33.5454 86.7225 33.5454 86.9847 33.5079V32.7961C86.7599 32.8336 86.6101 32.8336 86.5726 32.8336C86.3104 32.8336 86.1606 32.7961 86.0482 32.6838C85.9733 32.5714 85.8983 32.3466 85.8983 32.0469V28.4828H86.9098V27.846H85.8983V26.3823H85.9733V26.385ZM135.89 26.385L134.991 26.797V27.846H134.129V28.4828H134.991V32.1593C134.991 32.6838 135.066 33.0209 135.216 33.2082C135.403 33.433 135.74 33.5454 136.264 33.5454C136.414 33.5454 136.639 33.5454 136.939 33.5079V32.7961C136.714 32.8336 136.564 32.8336 136.527 32.8336C136.264 32.8336 136.115 32.7961 136.002 32.6838C135.927 32.5714 135.852 32.3466 135.852 32.0469V28.4828H136.864V27.846H135.852V26.3823H135.89V26.385ZM47.3083 27.6988C46.4467 27.6988 45.8446 28.0359 45.5824 28.7102C45.3951 29.1598 45.3202 29.8715 45.3202 30.8856C45.3202 31.7847 45.4326 32.4242 45.6573 32.7988C45.957 33.3233 46.4815 33.5855 47.2708 33.5855C48.4723 33.5855 49.1091 32.9487 49.184 31.7098H48.3224C48.2849 32.5339 47.9478 32.9487 47.311 32.9487C46.8614 32.9487 46.5992 32.7614 46.4494 32.3867C46.337 32.1245 46.2995 31.7124 46.2995 31.1479V30.7733H49.2616V30.511C49.2616 29.612 49.1867 28.9725 48.9994 28.5978C48.6569 27.9985 48.095 27.6988 47.3083 27.6988ZM57.7331 27.6988C56.8715 27.6988 56.3069 28.0359 56.0072 28.7102C55.8199 29.1598 55.7076 29.8715 55.7076 30.8856C55.7076 31.7847 55.8199 32.4242 56.0447 32.7988C56.3444 33.3233 56.8688 33.5855 57.6582 33.5855C58.8596 33.5855 59.4965 32.9487 59.5714 31.7098H58.7098C58.6723 32.5339 58.3352 32.9487 57.6983 32.9487C57.2488 32.9487 56.9866 32.7614 56.8367 32.3867C56.7243 32.1245 56.6869 31.7124 56.6869 31.1479V30.7733H59.649V30.511C59.649 29.612 59.574 28.9725 59.3867 28.5978C59.0844 27.9985 58.5599 27.6988 57.7331 27.6988ZM63.3603 27.6988C62.686 27.6988 62.199 27.9985 61.8966 28.5978V27.8112H61.035C61.0725 28.1483 61.0725 28.5229 61.0725 29.0501V33.4758H61.9715V30.0615C61.9715 29.612 62.0465 29.2374 62.2338 28.9002C62.4585 28.5256 62.7208 28.3383 63.1328 28.3383C63.5074 28.3383 63.7697 28.5256 63.9195 28.8253C63.9944 29.0126 64.0319 29.3497 64.0319 29.8367V33.4758H64.931V29.4247C64.8587 28.2982 64.3343 27.6988 63.3603 27.6988ZM68.0108 27.6988C67.5238 27.6988 67.1117 27.8112 66.8093 28.0734C66.4722 28.3356 66.3224 28.7102 66.3224 29.1972C66.3224 29.6467 66.4722 29.9839 66.7719 30.2461C66.9217 30.396 67.2589 30.5833 67.7833 30.883C68.1579 31.1077 68.4202 31.2576 68.5325 31.37C68.7199 31.5573 68.7948 31.782 68.7948 32.1192C68.7948 32.7185 68.4951 32.9808 67.9332 32.9808C67.4462 32.9808 67.1465 32.6811 67.109 32.0817C67.109 31.9693 67.109 31.8944 67.109 31.782H66.21C66.1725 33.0209 66.7719 33.6203 67.9358 33.6203C69.1373 33.6203 69.7366 33.0584 69.7366 31.9693C69.7366 31.5573 69.5868 31.1826 69.3246 30.883C69.1373 30.6957 68.8376 30.5083 68.3881 30.2461C67.976 30.0214 67.6763 29.8341 67.5639 29.7591C67.3392 29.5718 67.2268 29.3471 67.2268 29.1223C67.2268 28.8975 67.3017 28.7102 67.4141 28.5604C67.5639 28.4105 67.7512 28.3356 67.976 28.3356C68.5004 28.3356 68.7627 28.6728 68.7627 29.3845H69.6617C69.6617 28.8226 69.5119 28.3731 69.2497 28.1082C68.9848 27.8486 68.5727 27.6988 68.0108 27.6988ZM73.1857 27.6988C72.5863 27.6988 72.1368 27.9985 71.8345 28.5604V27.8112H70.9354C70.9729 28.1109 70.9729 28.448 70.9729 28.7852V33.4731H71.8719V29.9866C71.8719 29.537 71.9468 29.125 72.0967 28.8627C72.284 28.5256 72.5462 28.3758 72.8834 28.3758C73.2205 28.3758 73.4827 28.5256 73.5577 28.7878C73.6326 28.9377 73.6326 29.1999 73.6326 29.612V33.4758H74.5316V29.9117C74.5316 28.9002 74.8688 28.3731 75.5431 28.3731C75.8802 28.3731 76.105 28.5229 76.2174 28.7852C76.2923 28.9725 76.3298 29.2347 76.3298 29.6468V33.4731H77.2288V29.6093C77.2288 28.935 77.1164 28.4855 76.9291 28.1831C76.7044 27.846 76.3672 27.6586 75.8428 27.6586C75.2434 27.6586 74.7564 27.9583 74.4166 28.5202C74.2721 27.9985 73.86 27.6988 73.1857 27.6988ZM89.9495 27.6988C89.0879 27.6988 88.4858 28.0359 88.2236 28.7102C88.0363 29.1598 87.9614 29.8715 87.9614 30.8856C87.9614 31.7847 88.0737 32.4242 88.2985 32.7988C88.5982 33.3233 89.1226 33.5855 89.912 33.5855C91.1134 33.5855 91.7503 32.9487 91.8252 31.7098H90.9636C90.9261 32.5339 90.589 32.9487 89.9521 32.9487C89.5026 32.9487 89.2404 32.7614 89.0905 32.3867C88.9782 32.1245 88.9407 31.7124 88.9407 31.1479V30.7733H91.9028V30.511C91.9028 29.612 91.8279 28.9725 91.6406 28.5978C91.2981 27.9985 90.7361 27.6988 89.9495 27.6988ZM97.2624 27.6988C96.7754 27.6988 96.3633 27.8112 96.0609 28.0734C95.7238 28.3356 95.5739 28.7102 95.5739 29.1972C95.5739 29.6467 95.7238 29.9839 96.0235 30.2461C96.1733 30.396 96.5105 30.5833 97.0349 30.883C97.4095 31.1077 97.6718 31.2576 97.7841 31.37C97.9714 31.5573 98.0464 31.782 98.0464 32.1192C98.0464 32.7185 97.7467 32.9808 97.1848 32.9808C96.6978 32.9808 96.3981 32.6811 96.3606 32.0817C96.3606 31.9693 96.3606 31.8944 96.3606 31.782H95.4616C95.4241 33.0209 96.0235 33.6203 97.1874 33.6203C98.3889 33.6203 98.9508 33.0584 98.9508 31.9693C98.9508 31.5573 98.8009 31.1826 98.5387 30.883C98.3514 30.6957 98.0517 30.5083 97.6022 30.2461C97.1901 30.0214 96.9279 29.8341 96.8155 29.7591C96.5907 29.5718 96.4784 29.3471 96.4784 29.1223C96.4784 28.8975 96.5533 28.7102 96.7031 28.5604C96.853 28.4105 97.0403 28.3356 97.265 28.3356C97.7895 28.3356 98.0517 28.6728 98.0517 29.3845H98.9508C98.9508 28.8226 98.8009 28.3731 98.5387 28.1082C98.2738 27.8486 97.8617 27.6988 97.2624 27.6988ZM104.613 27.6988C103.789 27.6988 103.224 27.9985 102.924 28.6353C102.737 29.0474 102.625 29.7591 102.625 30.7358C102.625 31.7098 102.737 32.4242 102.924 32.7988C103.187 33.3233 103.748 33.5855 104.575 33.5855C105.737 33.5855 106.339 32.9487 106.339 31.7098H105.477C105.477 32.0844 105.402 32.3841 105.29 32.5714C105.14 32.8336 104.915 32.946 104.54 32.946C104.128 32.946 103.866 32.7587 103.716 32.4215C103.604 32.0844 103.529 31.5225 103.529 30.6582C103.529 29.909 103.566 29.3818 103.641 29.0822C103.791 28.5952 104.091 28.3329 104.54 28.3329C105.14 28.3329 105.402 28.745 105.402 29.5344H106.264C106.264 28.8975 106.151 28.448 105.889 28.1456C105.702 27.8486 105.25 27.6988 104.613 27.6988ZM114.888 27.6988C114.026 27.6988 113.462 28.0359 113.162 28.7102C112.975 29.1598 112.862 29.8715 112.862 30.8856C112.862 31.7847 112.975 32.4242 113.199 32.7988C113.499 33.3233 114.023 33.5855 114.813 33.5855C116.014 33.5855 116.651 32.9487 116.726 31.7098H115.864C115.827 32.5339 115.49 32.9487 114.853 32.9487C114.403 32.9487 114.141 32.7614 113.991 32.3867C113.879 32.1245 113.841 31.7124 113.841 31.1479V30.7733H116.804V30.511C116.804 29.612 116.729 28.9725 116.541 28.5978C116.239 27.9985 115.677 27.6988 114.888 27.6988ZM128.877 27.6988C128.015 27.6988 127.413 28.0359 127.151 28.7102C126.963 29.1598 126.889 29.8715 126.889 30.8856C126.889 31.7847 127.001 32.4242 127.226 32.7988C127.525 33.3233 128.05 33.5855 128.839 33.5855C130.041 33.5855 130.677 32.9487 130.752 31.7098H129.891C129.853 32.5339 129.516 32.9487 128.879 32.9487C128.43 32.9487 128.168 32.7614 128.018 32.3867C127.905 32.1245 127.868 31.7124 127.868 31.1479V30.7733H130.83V30.511C130.83 29.612 130.755 28.9725 130.568 28.5978C130.228 27.9985 129.703 27.6988 128.877 27.6988ZM120.44 27.6988C119.803 27.6988 119.316 27.9985 119.014 28.5604V27.8112H118.152C118.19 28.1109 118.19 28.448 118.19 28.8601V33.5106H119.089V29.9866C119.089 29.537 119.201 29.1999 119.426 28.9377C119.651 28.6754 119.95 28.5256 120.4 28.5256C120.437 28.5256 120.512 28.5256 120.587 28.5631C120.552 27.9985 120.515 27.6988 120.44 27.6988ZM78.96 27.8112V33.5106H79.8591V27.8112H78.96ZM100.299 27.8112V33.5106H101.198V27.8112H100.299ZM132.179 27.8112V33.5106H133.078V27.8112H132.179ZM47.2708 28.3356C47.7204 28.3356 48.02 28.5604 48.1324 29.0099C48.2073 29.2347 48.2448 29.6093 48.2448 30.1712H46.1818C46.1818 29.9464 46.1818 29.6842 46.2192 29.422C46.3316 28.7102 46.6715 28.3356 47.2708 28.3356ZM57.7331 28.3356C58.1826 28.3356 58.4823 28.5604 58.5947 29.0099C58.6696 29.2347 58.7071 29.6093 58.7071 30.1712H56.6441C56.6441 29.9464 56.6441 29.6842 56.6815 29.422C56.7591 28.7102 57.1337 28.3356 57.7331 28.3356ZM89.912 28.3356C90.3615 28.3356 90.6612 28.5604 90.7736 29.0099C90.8485 29.2347 90.886 29.6093 90.886 30.1712H88.823C88.823 29.9464 88.823 29.6842 88.8604 29.422C88.9728 28.7102 89.3126 28.3356 89.912 28.3356ZM114.85 28.3356C115.3 28.3356 115.599 28.5604 115.712 29.0099C115.787 29.2347 115.824 29.6093 115.824 30.1712H113.761C113.761 29.9464 113.761 29.6842 113.799 29.422C113.914 28.7102 114.251 28.3356 114.85 28.3356ZM128.877 28.3356C129.326 28.3356 129.626 28.5604 129.738 29.0099C129.813 29.2347 129.851 29.6093 129.851 30.1712H127.788C127.788 29.9464 127.788 29.6842 127.825 29.422C127.903 28.7102 128.24 28.3356 128.877 28.3356ZM52.5956 28.3731C53.0452 28.3731 53.3448 28.6353 53.4947 29.1972C53.5696 29.4969 53.6071 29.9464 53.6071 30.5485C53.6071 31.5225 53.4947 32.162 53.3074 32.4991C53.1201 32.7988 52.8953 32.9487 52.5956 32.9487C52.1836 32.9487 51.8839 32.7614 51.6966 32.3867C51.5467 32.0871 51.4718 31.5251 51.4718 30.6983C51.4718 29.7243 51.5842 29.0848 51.8089 28.7852C51.9962 28.4855 52.2585 28.3731 52.5956 28.3731Z" fill="#383838"/>
</svg>
