<svg width="151" height="151" viewBox="0 0 151 151" fill="none" xmlns="http://www.w3.org/2000/svg">
<path d="M67.9532 49.0753C67.9521 44.8918 66.5612 40.8272 63.999 37.5201C61.4369 34.213 57.8486 31.8509 53.798 30.8047C49.7474 29.7586 45.4641 30.0878 41.6209 31.7407C37.7778 33.3935 34.5927 36.2763 32.566 39.9361C30.5393 43.5959 29.7859 47.8253 30.4241 51.9598C31.0624 56.0943 33.0561 59.8996 36.0921 62.7779C39.1282 65.6561 43.0343 67.4442 47.197 67.8611C51.3597 68.278 55.5429 67.3002 59.0895 65.0813C57.8736 72.3894 55.4442 79.4427 51.9019 85.9495C47.0019 94.8585 40.7581 101.133 35.0805 106.803C34.3716 107.511 33.9734 108.473 33.9734 109.475C33.9734 110.478 34.3716 111.439 35.0805 112.148C35.7893 112.857 36.7507 113.255 37.7532 113.255C38.7556 113.255 39.717 112.857 40.4259 112.148L40.5089 112.057C46.1488 106.418 53.0721 99.4942 58.5232 89.5886C64.0272 79.5622 67.9532 66.6668 67.9532 49.0753ZM111.939 65.0813C108.393 67.3002 104.21 68.278 100.047 67.8611C95.8843 67.4442 91.9782 65.6561 88.9422 62.7779C85.9061 59.8996 83.9124 56.0943 83.2741 51.9598C82.6359 47.8253 83.3893 43.5959 85.416 39.9361C87.4427 36.2763 90.6278 33.3935 94.4709 31.7407C98.3141 30.0878 102.597 29.7586 106.648 30.8047C110.699 31.8509 114.287 34.213 116.849 37.5201C119.411 40.8272 120.802 44.8918 120.803 49.0753C120.803 66.6668 116.877 79.5622 111.366 89.5886C105.922 99.4942 98.9988 106.425 93.3665 112.057L93.2759 112.148C92.567 112.857 91.6056 113.255 90.6032 113.255C89.6007 113.255 88.6393 112.857 87.9305 112.148C87.2216 111.439 86.8234 110.478 86.8234 109.475C86.8234 108.473 87.2216 107.511 87.9305 106.803C93.6081 101.133 99.8519 94.8661 104.752 85.9495C108.295 79.4405 110.725 72.3845 111.939 65.0738V65.0813Z" fill="#9DBC78" fill-opacity="0.3"/>
</svg>
