<svg width="151" height="151" viewBox="0 0 151 151" fill="none" xmlns="http://www.w3.org/2000/svg">
<path d="M83.0468 49.0753C83.0479 44.8918 84.4388 40.8272 87.001 37.5201C89.5631 34.213 93.1514 31.8509 97.202 30.8047C101.253 29.7586 105.536 30.0878 109.379 31.7407C113.222 33.3935 116.407 36.2763 118.434 39.9361C120.461 43.5959 121.214 47.8253 120.576 51.9598C119.938 56.0943 117.944 59.8996 114.908 62.7779C111.872 65.6561 107.966 67.4442 103.803 67.8611C99.6403 68.278 95.4571 67.3002 91.9105 65.0813C93.1264 72.3894 95.5558 79.4427 99.0981 85.9495C103.998 94.8585 110.242 101.133 115.92 106.803C116.628 107.511 117.027 108.473 117.027 109.475C117.027 110.478 116.628 111.439 115.92 112.148C115.211 112.857 114.249 113.255 113.247 113.255C112.244 113.255 111.283 112.857 110.574 112.148L110.491 112.057C104.851 106.418 97.9279 99.4942 92.4768 89.5886C86.9728 79.5622 83.0468 66.6668 83.0468 49.0753ZM39.0605 65.0813C42.6071 67.3002 46.7903 68.278 50.953 67.8611C55.1157 67.4442 59.0218 65.6561 62.0578 62.7779C65.0939 59.8996 67.0876 56.0943 67.7259 51.9598C68.3641 47.8253 67.6107 43.5959 65.584 39.9361C63.5573 36.2763 60.3722 33.3935 56.5291 31.7407C52.6859 30.0878 48.4026 29.7586 44.352 30.8047C40.3014 31.8509 36.7131 34.213 34.1509 37.5201C31.5888 40.8272 30.1979 44.8918 30.1968 49.0753C30.1968 66.6668 34.1228 79.5622 39.6343 89.5886C45.0779 99.4942 52.0012 106.425 57.6335 112.057L57.7241 112.148C58.433 112.857 59.3944 113.255 60.3968 113.255C61.3993 113.255 62.3607 112.857 63.0695 112.148C63.7784 111.439 64.1766 110.478 64.1766 109.475C64.1766 108.473 63.7784 107.511 63.0695 106.803C57.3919 101.133 51.1481 94.8661 46.2481 85.9495C42.7048 79.4405 40.2754 72.3845 39.0605 65.0738V65.0813Z" fill="#9DBC78" fill-opacity="0.3"/>
</svg>
