<svg width="50" height="40" viewBox="0 0 50 40" fill="none" xmlns="http://www.w3.org/2000/svg">
<path d="M15.0023 5C15.0023 7.75781 12.7601 10 10.0023 10C7.24447 10 5.00229 7.75781 5.00229 5C5.00229 2.24219 7.24447 0 10.0023 0C12.7601 0 15.0023 2.24219 15.0023 5ZM2.02572 18.2344C2.29135 14.9922 5.00229 12.5 8.25229 12.5H11.7523C13.8617 12.5 15.7367 13.5469 16.8695 15.1641C16.6585 15.3125 16.4632 15.4766 16.2835 15.6562L11.2835 20.6562C9.5726 22.3672 9.5726 25.1328 11.2835 26.8438L15.0023 30.5625V36.25C15.0023 38.3203 13.3226 40 11.2523 40H8.75229C6.68197 40 5.00229 38.3203 5.00229 36.25V27.2109C2.93197 26.4688 1.5101 24.4141 1.70541 22.0859L2.02572 18.2344ZM45.0023 5C45.0023 7.75781 42.7601 10 40.0023 10C37.2445 10 35.0023 7.75781 35.0023 5C35.0023 2.24219 37.2445 0 40.0023 0C42.7601 0 45.0023 2.24219 45.0023 5ZM33.721 15.6562C33.5413 15.4766 33.3382 15.3125 33.1351 15.1641C34.2679 13.5469 36.1507 12.5 38.2523 12.5H41.7523C45.0023 12.5 47.7132 14.9922 47.9788 18.2344L48.2992 22.0859C48.4945 24.4141 47.0726 26.4688 45.0023 27.2109V36.25C45.0023 38.3203 43.3226 40 41.2523 40H38.7523C36.682 40 35.0023 38.3203 35.0023 36.25V30.5625L38.721 26.8438C40.432 25.1328 40.432 22.3672 38.721 20.6562L33.721 15.6562ZM21.2523 18.75V21.25H28.7523V18.75C28.7523 17.9922 29.2054 17.3047 29.9085 17.0156C30.6117 16.7266 31.4163 16.8828 31.9554 17.4219L36.9554 22.4219C37.6898 23.1562 37.6898 24.3438 36.9554 25.0703L31.9554 30.0703C31.4163 30.6094 30.6117 30.7656 29.9085 30.4766C29.2054 30.1875 28.7523 29.5 28.7523 28.7422V26.25H21.2523V28.75C21.2523 29.5078 20.7992 30.1953 20.096 30.4844C19.3929 30.7734 18.5882 30.6172 18.0492 30.0781L13.0492 25.0781C12.3148 24.3438 12.3148 23.1562 13.0492 22.4297L18.0492 17.4297C18.5882 16.8906 19.3929 16.7344 20.096 17.0234C20.7992 17.3125 21.2523 18 21.2523 18.7578V18.75Z" fill="#9DBC78"/>
</svg>
