<svg width="90" height="90" viewBox="0 0 90 90" fill="none" xmlns="http://www.w3.org/2000/svg">
<path d="M83.9391 48.0909L76.9388 72.63C75.9066 76.2328 72.5737 78.75 68.8303 78.75H30.9375C29.3822 78.75 28.125 77.49 28.125 75.9375V36.5625C28.125 35.9578 28.3191 35.3672 28.6819 34.8834L43.8469 14.5209C45.5288 12.4144 47.9531 11.25 50.5519 11.25C55.2459 11.25 59.0625 15.0666 59.0625 19.7606V33.75H73.1306C76.6884 33.75 79.9566 35.3784 82.0969 38.2191C84.2456 41.0653 84.915 44.6625 83.9391 48.0909Z" fill="#9DBC78"/>
<path d="M19.6875 33.75H8.4375C6.88219 33.75 5.625 35.01 5.625 36.5625V75.9375C5.625 77.49 6.88219 78.75 8.4375 78.75H19.6875C21.2428 78.75 22.5 77.49 22.5 75.9375V36.5625C22.5 35.01 21.2428 33.75 19.6875 33.75ZM14.0625 71.7188C11.7337 71.7188 9.84375 69.8288 9.84375 67.5C9.84375 65.1712 11.7337 63.2812 14.0625 63.2812C16.3913 63.2812 18.2812 65.1712 18.2812 67.5C18.2812 69.8288 16.3913 71.7188 14.0625 71.7188Z" fill="#9DBC78"/>
</svg>
