<svg width="45" height="40" viewBox="0 0 45 40" fill="none" xmlns="http://www.w3.org/2000/svg">
<g clip-path="url(#clip0_844_1784)">
<path d="M24.7622 1.40625C24.3482 0.546875 23.4732 0 22.5122 0C21.5513 0 20.6841 0.546875 20.2622 1.40625L15.2388 11.7422L4.02003 13.3984C3.08253 13.5391 2.30128 14.1953 2.01222 15.0938C1.72316 15.9922 1.95753 16.9844 2.62941 17.6484L10.77 25.7031L8.84816 37.0859C8.69191 38.0234 9.08253 38.9766 9.85597 39.5312C10.6294 40.0859 11.6528 40.1562 12.4966 39.7109L22.52 34.3594L32.5435 39.7109C33.3872 40.1562 34.4107 40.0938 35.1841 39.5312C35.9575 38.9688 36.3482 38.0234 36.1919 37.0859L34.2622 25.7031L42.4028 17.6484C43.0747 16.9844 43.3169 15.9922 43.02 15.0938C42.7232 14.1953 41.9497 13.5391 41.0122 13.3984L29.7857 11.7422L24.7622 1.40625Z" fill="#9DBC78"/>
</g>
<defs>
<clipPath id="clip0_844_1784">
<rect width="45" height="40" fill="white"/>
</clipPath>
</defs>
</svg>
