<svg width="90" height="90" viewBox="0 0 90 90" fill="none" xmlns="http://www.w3.org/2000/svg">
<path d="M67.5 11.25V7.5H22.5V11.25C18.5218 11.25 14.7064 12.8304 11.8934 15.6434C9.08035 18.4564 7.5 22.2718 7.5 26.25C7.5 30.2282 9.08035 34.0436 11.8934 36.8566C14.7064 39.6696 18.5218 41.25 22.5 41.25H25.5375C27.1938 44.1117 29.4605 46.5732 32.1762 48.4593C34.892 50.3454 37.9901 51.6098 41.25 52.1625V60H27.075L21.45 82.5H68.55L62.925 60H48.75V52.1625C52.0099 51.6098 55.108 50.3454 57.8238 48.4593C60.5395 46.5732 62.8062 44.1117 64.4625 41.25H67.5C71.4782 41.25 75.2936 39.6696 78.1066 36.8566C80.9196 34.0436 82.5 30.2282 82.5 26.25C82.5 22.2718 80.9196 18.4564 78.1066 15.6434C75.2936 12.8304 71.4782 11.25 67.5 11.25ZM22.5 33.75C20.5109 33.75 18.6032 32.9598 17.1967 31.5533C15.7902 30.1468 15 28.2391 15 26.25C15 24.2609 15.7902 22.3532 17.1967 20.9467C18.6032 19.5402 20.5109 18.75 22.5 18.75V30C22.4973 31.2577 22.6103 32.513 22.8375 33.75H22.5ZM72.7875 31.5375C71.3874 32.946 69.4859 33.7416 67.5 33.75H67.1625C67.3897 32.513 67.5027 31.2577 67.5 30V18.75C69.4891 18.75 71.3968 19.5402 72.8033 20.9467C74.2098 22.3532 75 24.2609 75 26.25C74.9916 28.2359 74.196 30.1374 72.7875 31.5375V31.5375Z" fill="#9DBC78"/>
</svg>
