<svg width="51" height="50" viewBox="0 0 51 50" fill="none" xmlns="http://www.w3.org/2000/svg">
<path d="M31.1641 18.3138L22.2266 27.2721L18.7891 23.8346C18.6023 23.6165 18.3725 23.4394 18.114 23.3144C17.8555 23.1893 17.574 23.119 17.2871 23.108C17.0002 23.0969 16.7141 23.1452 16.4467 23.25C16.1794 23.3547 15.9366 23.5136 15.7335 23.7166C15.5305 23.9196 15.3716 24.1624 15.2669 24.4298C15.1622 24.6971 15.1138 24.9832 15.1249 25.2702C15.136 25.5571 15.2063 25.8386 15.3313 26.0971C15.4564 26.3555 15.6335 26.5854 15.8516 26.7721L20.7474 31.6888C20.9421 31.8819 21.1729 32.0346 21.4268 32.1383C21.6806 32.242 21.9524 32.2945 22.2266 32.293C22.7731 32.2907 23.2969 32.0737 23.6849 31.6888L34.1016 21.2721C34.2968 21.0785 34.4518 20.848 34.5576 20.5942C34.6634 20.3403 34.7178 20.068 34.7178 19.793C34.7178 19.5179 34.6634 19.2456 34.5576 18.9918C34.4518 18.7379 34.2968 18.5075 34.1016 18.3138C33.7112 17.9258 33.1832 17.708 32.6328 17.708C32.0824 17.708 31.5544 17.9258 31.1641 18.3138ZM25.4974 4.16797C21.377 4.16797 17.349 5.38982 13.923 7.67902C10.497 9.96821 7.82674 13.2219 6.24991 17.0287C4.67309 20.8355 4.26052 25.0244 5.06438 29.0657C5.86824 33.1069 7.85242 36.8191 10.766 39.7327C13.6796 42.6463 17.3918 44.6305 21.433 45.4343C25.4743 46.2382 29.6632 45.8256 33.47 44.2488C37.2768 42.672 40.5305 40.0017 42.8197 36.5757C45.1089 33.1497 46.3307 29.1217 46.3307 25.0013C46.3307 22.2654 45.7919 19.5563 44.7449 17.0287C43.6979 14.5011 42.1633 12.2045 40.2288 10.2699C38.2942 8.33536 35.9976 6.80078 33.47 5.75381C30.9424 4.70684 28.2333 4.16797 25.4974 4.16797ZM25.4974 41.668C22.201 41.668 18.9787 40.6905 16.2379 38.8591C13.4971 37.0278 11.3609 34.4248 10.0994 31.3794C8.83795 28.3339 8.5079 24.9828 9.15098 21.7498C9.79407 18.5168 11.3814 15.5471 13.7123 13.2162C16.0432 10.8853 19.0129 9.29797 22.2459 8.65488C25.4789 8.01179 28.83 8.34185 31.8755 9.60331C34.9209 10.8648 37.5239 13.001 39.3552 15.7418C41.1866 18.4826 42.1641 21.7049 42.1641 25.0013C42.1641 29.4216 40.4081 33.6608 37.2825 36.7864C34.1569 39.912 29.9177 41.668 25.4974 41.668Z" fill="#9DBC78"/>
</svg>
