<svg width="24" height="24" viewBox="0 0 24 24" fill="none" xmlns="http://www.w3.org/2000/svg">
<path d="M16.3417 9.32278C16.4378 9.23322 16.5153 9.12562 16.5697 9.00611C16.6242 8.8866 16.6546 8.75754 16.6592 8.62628C16.6638 8.49503 16.6425 8.36415 16.5965 8.24113C16.5505 8.11811 16.4808 8.00534 16.3912 7.90928C16.3017 7.81322 16.1941 7.73574 16.0745 7.68126C15.955 7.62679 15.826 7.59638 15.6947 7.59179C15.5635 7.58719 15.4326 7.60849 15.3096 7.65447C15.1865 7.70046 15.0738 7.77022 14.9777 7.85978L12.0517 10.5878L9.32372 7.66078C9.14119 7.47383 8.89273 7.36574 8.63151 7.35965C8.3703 7.35356 8.11707 7.44994 7.92602 7.62819C7.73497 7.80643 7.62128 8.05237 7.60926 8.31338C7.59724 8.57439 7.68786 8.82974 7.86172 9.02478L10.5897 11.9508L7.66272 14.6788C7.56326 14.7674 7.48253 14.8751 7.42525 14.9954C7.36797 15.1157 7.33531 15.2462 7.32918 15.3793C7.32306 15.5124 7.34358 15.6453 7.38956 15.7704C7.43554 15.8954 7.50605 16.01 7.59694 16.1074C7.68782 16.2049 7.79726 16.2831 7.91882 16.3377C8.04038 16.3922 8.17162 16.4219 8.30481 16.425C8.43801 16.4281 8.57048 16.4046 8.69445 16.3557C8.81842 16.3069 8.93139 16.2339 9.02672 16.1408L11.9527 13.4138L14.6807 16.3398C14.7688 16.4411 14.8764 16.5236 14.997 16.5824C15.1177 16.6413 15.249 16.6752 15.383 16.6822C15.5171 16.6892 15.6511 16.6692 15.7773 16.6233C15.9034 16.5774 16.019 16.5066 16.1172 16.415C16.2154 16.3235 16.2941 16.2131 16.3488 16.0905C16.4034 15.9679 16.4328 15.8355 16.4352 15.7013C16.4375 15.5671 16.4129 15.4338 16.3626 15.3093C16.3124 15.1848 16.2376 15.0717 16.1427 14.9768L13.4157 12.0508L16.3417 9.32278Z" fill="black"/>
<path fill-rule="evenodd" clip-rule="evenodd" d="M1 12C1 5.925 5.925 1 12 1C18.075 1 23 5.925 23 12C23 18.075 18.075 23 12 23C5.925 23 1 18.075 1 12ZM12 21C10.8181 21 9.64778 20.7672 8.55585 20.3149C7.46392 19.8626 6.47177 19.1997 5.63604 18.364C4.80031 17.5282 4.13738 16.5361 3.68508 15.4442C3.23279 14.3522 3 13.1819 3 12C3 10.8181 3.23279 9.64778 3.68508 8.55585C4.13738 7.46392 4.80031 6.47177 5.63604 5.63604C6.47177 4.80031 7.46392 4.13738 8.55585 3.68508C9.64778 3.23279 10.8181 3 12 3C14.3869 3 16.6761 3.94821 18.364 5.63604C20.0518 7.32387 21 9.61305 21 12C21 14.3869 20.0518 16.6761 18.364 18.364C16.6761 20.0518 14.3869 21 12 21Z" fill="black"/>
</svg>
