<svg width="161" height="106" viewBox="0 0 161 106" fill="none" xmlns="http://www.w3.org/2000/svg">
<g clip-path="url(#clip0_622_1919)">
<path d="M63.8856 80H118.655V68.4077H63.8856V80ZM84.5281 45.685H118.656V34.0927H84.5281V45.685ZM46.6562 0V28.5299H58.0189V11.5923H118.655V0H46.6562ZM78.666 34.1668H46.6562V79.9306H58.0189V45.7591H78.666V34.1668Z" fill="white"/>
<path d="M32 105.723V93.5469H40.9158V95.7598H34.3397V99.0871H40.5608V101.212H34.3397V105.723H32Z" fill="white"/>
<path d="M51.779 105.721H42.4922V93.5273H51.779V95.7576H44.8143V98.5615H51.5311V100.704H44.8143V103.456H51.779V105.721Z" fill="white"/>
<path d="M57.1719 105.723V93.5469H66.0877V95.7598H59.5116V99.0871H65.7326V101.212H59.5116V105.723H57.1719Z" fill="white"/>
<path d="M67.8906 105.721V93.5273H70.2127V105.721H67.8906Z" fill="white"/>
<path d="M80.5614 93.5117H82.9011V105.722H81.4474V105.74L74.9256 97.5007V105.722H72.5859V93.529H74.4826L80.5614 101.089V93.5117Z" fill="white"/>
<path d="M93.8583 103.421H87.3717L86.3082 105.721H83.7734L89.3388 93.5273H91.8912L97.4566 105.721H94.9042L93.8583 103.421ZM90.615 96.0877L88.3105 101.279H92.9179L90.6134 96.0877H90.615Z" fill="white"/>
<path d="M106.671 93.5117H109.01V105.722H107.557V105.74L101.035 97.5007V105.722H98.6953V93.529H100.592L106.671 101.089V93.5117Z" fill="white"/>
<path d="M122.088 104.188C120.811 105.425 119.163 106 117.373 106C112.766 106 110.815 102.882 110.797 99.7118C110.779 96.5244 112.889 93.2852 117.373 93.2852C119.057 93.2852 120.652 93.9123 121.928 95.1492L120.368 96.6297C119.553 95.8455 118.454 95.4808 117.373 95.4808C114.378 95.4808 113.084 97.6749 113.102 99.7134C113.119 101.735 114.307 103.842 117.373 103.842C118.454 103.842 119.678 103.407 120.492 102.605L122.086 104.19L122.088 104.188Z" fill="white"/>
<path d="M132.654 105.721H123.367V93.5273H132.654V95.7576H125.689V98.5615H132.406V100.704H125.689V103.456H132.654V105.721Z" fill="white"/>
</g>
<defs>
<clipPath id="clip0_622_1919">
<rect width="161" height="106" fill="white"/>
</clipPath>
</defs>
</svg>
