<svg width="1440" height="619" viewBox="0 0 1440 619" fill="none" xmlns="http://www.w3.org/2000/svg">
<path d="M1441 95.4875C1441 95.4875 1182.04 12.1719 941.5 0.999394C775.104 -6.72946 558.444 35.1173 346.5 68.9999C233.064 87.1345 0 95.5 0 95.5L-2.5 617.487H1441V95.4875Z" fill="#9DBC78"/>
<path d="M1385.88 253.001C1426.5 259.851 1440.5 226.501 1440.5 226.501V619.001H1402.88C1402.88 619.001 1121.36 590.543 1054.88 456.001C989.45 323.583 987.314 120.201 1130.88 85.5005C1246.69 57.5088 1268.4 233.185 1385.88 253.001Z" fill="white" fill-opacity="0.13"/>
<path d="M-0.5 265L0.5 95.5C0.5 95.5 98.0902 92.1535 161.5 87C215.629 82.6008 301.5 75.5 301.5 75.5C301.5 75.5 350.67 255.585 279 319.5C195.832 393.669 -0.5 265 -0.5 265Z" fill="#024A0D" fill-opacity="0.05"/>
</svg>
