<svg width="40" height="41" viewBox="0 0 40 41" fill="none" xmlns="http://www.w3.org/2000/svg">
<path d="M24.4844 3.06953C26.5156 3.47578 27.8359 5.45234 27.4297 7.48359L27.25 8.37422C26.8359 10.4602 26.0703 12.4445 25 14.2492H36.25C38.3203 14.2492 40 15.9289 40 17.9992C40 19.9758 38.4766 21.593 36.5391 21.7414C37.1406 22.4055 37.5 23.2883 37.5 24.2492C37.5 26.0773 36.1875 27.6008 34.4609 27.9289C34.8047 28.4914 35 29.1633 35 29.8742C35 31.5383 33.9141 32.9523 32.4141 33.4367C32.4688 33.6945 32.5 33.968 32.5 34.2492C32.5 36.3195 30.8203 37.9992 28.75 37.9992H23.0078C21.5234 37.9992 20.0781 37.5617 18.8438 36.7414L15.8359 34.7336C13.75 33.343 12.5 30.9992 12.5 28.4914V19.8039C12.5 17.5227 13.5391 15.3742 15.3125 13.9445L15.8906 13.4836C17.9609 11.8273 19.375 9.49922 19.8906 6.90547L20.0703 6.01484C20.4766 3.98359 22.4531 2.66328 24.4844 3.06953ZM2.5 15.4992H7.5C8.88281 15.4992 10 16.6164 10 17.9992V35.4992C10 36.882 8.88281 37.9992 7.5 37.9992H2.5C1.11719 37.9992 0 36.882 0 35.4992V17.9992C0 16.6164 1.11719 15.4992 2.5 15.4992Z" fill="#9DBC78"/>
</svg>
