<svg width="90" height="90" viewBox="0 0 90 90" fill="none" xmlns="http://www.w3.org/2000/svg">
<path d="M84.0796 35.2125C83.4187 33.2325 81.748 31.8122 79.723 31.5028L59.1665 28.4231L49.9134 8.78062C48.9937 6.83438 47.1121 5.625 44.9999 5.625C42.8877 5.625 41.0062 6.83438 40.0865 8.78062L30.9684 28.3528L10.2768 31.5028C8.25179 31.8122 6.58398 33.2325 5.92023 35.2125C5.24242 37.2459 5.74304 39.4509 7.22804 40.9669L22.1934 56.2837L18.658 77.8725C18.3065 80.0297 19.1784 82.1419 20.939 83.3822C22.6321 84.5831 24.809 84.7012 26.6202 83.7028L44.8705 73.5103L63.3796 83.7028C65.1965 84.7012 67.3677 84.5775 69.0609 83.3822C70.8215 82.1419 71.6962 80.0297 71.3418 77.8725L67.8009 56.2556L82.7718 40.9669C84.2568 39.4509 84.7574 37.2459 84.0796 35.2125Z" fill="#9DBC78"/>
</svg>
