<svg xmlns="http://www.w3.org/2000/svg" viewBox="0 0 1777.6 459.72"><defs><style>.cls-1{fill:#064582;}.cls-2{fill:#fff;}.cls-3{fill:#383b3a;}</style></defs><g id="Capa_2" data-name="Capa 2"><g id="Capa_1-2" data-name="Capa 1"><path class="cls-1" d="M1642.6,171.1c15.66-36.7,39.82-92.87,55.15-129.7h79.83c0,76.57,0,168.79,0,245.37H1718c0-48.28,0-105.2,0-153.48V109l-.14.3c-4.67,10.89-11.47,26.58-16.11,37.49-12.07,28.47-27.12,64.06-38.89,92.65h-40.65c-12.42-30.12-28-66.75-40.73-96.74-4.09-9.63-9.72-22.45-14.58-33.7l0,15.76c-.05,50.28,0,111.76-.05,162h-59.49c0-74.25,0-171.13,0-245.37h79.7c15.61,37.43,34.63,82,50.49,119.3Z"/><path class="cls-1" d="M234.76,286.77c0-30.64.09-69.22.12-99.86,0-7.64.34-15.29-1.14-22.89-1.81-9.34-5.24-17.75-15.31-20.2-10.53-2.57-20.52-.78-28.53,7.48-8.58,8.86-11.58,20-12.76,31.78-.74,7.27-.75,14.63-.78,21.95-.1,24.64,0,57.1-.1,81.74h-59c-.06-30.3,0-68.84-.06-99.14a199.52,199.52,0,0,0-1.58-24.87c-2.52-19.71-17.12-22.21-31.55-18.53-9.36,2.38-15.1,9.36-19,17.86-4.39,9.53-6,19.67-6,30.09-.05,27.31-.06,67.28-.08,94.59H0c0-.67,0-9.82,0-10.48q0-81.42,0-162.84c0-2,.1-8.67,0-10.66H58.89v23.85c4-1.61,5.45-4.73,7.53-7,20-21.77,51.28-27.82,76.62-14.74A55.68,55.68,0,0,1,164.4,124c1.62,2.46,3.26,4.9,4.92,7.38,3.37-2,4.74-5.18,6.84-7.66,18.62-21.86,42.3-29.16,70-23.76,19.82,3.86,33.34,15.86,40.74,34.59a87.56,87.56,0,0,1,6.3,32.15c.09,37.62.16,82.47.16,120.1Z"/><path class="cls-1" d="M1460.27,286.77c-6.07-12.59-17-35.14-23.21-47.66-5.46-11-10.74-22.15-16.62-33-7.93-14.56-17.71-27.48-35.72-34,2.88-1.45,4.3-2.28,5.8-2.9,24-9.8,37-27.73,38.5-53.43,2.19-36.41-12-60.33-47.47-69.28a171.43,171.43,0,0,0-41.5-5c-29.63-.09-69.89-.05-99.52-.06l0,12.84q0,76.42,0,152.84c0,24,0,55.72,0,79.69l7.79,0q24,.11,48,0l7.32.07c.1-15,0-37.18,0-52.16q0-17.49,0-35c0-3.17.14-5.79,4.57-5.9,29.81-.67,39.68,2.45,53.62,28.51,1.1,2.05,2.12,4.15,3.14,6.24,6.55,13.46,21.92,44.85,28.53,58.28ZM1303.54,150.06c.2-8.65.06-22.47.06-31.13h0c0-8.65.06-17.31,0-26l-.06-5.61c11.94.54,28.82-1,40.7,1.56,14.4,3.14,21,10.7,21.81,25.57,1.37,23.86-7.32,33.82-31.23,35.23-8.63.51-17.3.15-26,.34Z"/><path class="cls-1" d="M464.64,102.79H457C459.58,102.77,462.11,102.74,464.64,102.79Z"/><path class="cls-1" d="M473.89,68.05V89.62C473.83,82.43,473.86,75.24,473.89,68.05Z"/><circle class="cls-1" cx="1044.77" cy="158.8" r="158.8"/><path class="cls-2" d="M1148.41,123.84c.09,18.64-.14,51.11.14,69.74l-69.21,0v69.75h-69V193.56l-69.58,0c-.09-9.32,0-26,0-35.34l0-34.32c15.64-.12,53.7,0,69.34-.06l.1-10,.14-59.59h69.2l-.18,69.61Z"/><rect class="cls-1" x="350.73" y="31.14" width="58.56" height="48.15"/><rect class="cls-1" x="350.74" y="102.79" width="58.55" height="184.08"/><path class="cls-1" d="M469.83,102.79a11.34,11.34,0,0,1-2.24.09c-1,0-2-.07-2.95-.09Z"/><path class="cls-1" d="M470.41,145.05H463c1.54,0,3.08-.06,4.63-.14A11.11,11.11,0,0,1,470.41,145.05Z"/><path class="cls-1" d="M587.11,286.76c-21.6-.58-48.16,1.32-69.69-1.69-23.62-3.31-36.23-15-41.31-38.23-3.1-14.13-1.95-28.48-2.19-42.76-.05-3.33,0-6.65,0-10h0c0-11.65-.09-23.29,0-34.93,0-2.66,0-5.33.08-8a13.12,13.12,0,0,0-.08-1.83v-4.3h-3.48a11.11,11.11,0,0,0-2.8-.14c-1.55.08-3.09.13-4.63.14H444.87V102.79h19.77c1,0,2,0,2.95.09a11.34,11.34,0,0,0,2.24-.09h4.06V98.27a14.23,14.23,0,0,0,.07-1.78q-.06-3.43-.07-6.87V50.54h58.56v10.1c-.18,11.36-.07,22.73,0,34.11v8h60.06v42.26H532.45v6.15c0,.62,0,1.31,0,2.07q0,10.51,0,21,0,23.92,0,47.84a55.91,55.91,0,0,0,.34,7c1.16,8.92,4.75,12.47,14,14.24s18.58.77,27.87,1c2.66.08,9.84.13,12.5,0"/><path class="cls-1" d="M474,96.49a14.23,14.23,0,0,1-.07,1.78V89.62Q473.91,93.06,474,96.49Z"/><path class="cls-1" d="M474,151.18c0,2.66-.06,5.33-.08,8v-9.82A13.12,13.12,0,0,1,474,151.18Z"/><path class="cls-1" d="M532.45,60.64V94.75C532.38,83.37,532.27,72,532.45,60.64Z"/><path class="cls-1" d="M532.45,151.2v23.1h0q0-10.52,0-21C532.44,152.51,532.44,151.82,532.45,151.2Z"/><polygon class="cls-1" points="633.9 188.58 633.9 286.77 693.2 286.77 693.2 119.49 780.95 286.77 851.78 286.77 851.78 41.2 791.03 41.2 793.23 212.43 703.9 41.2 633.9 41.2 633.9 188.58"/><polygon class="cls-3" points="86.8 400.11 86.8 407.6 86.8 425.83 86.8 433.32 86.8 459.04 94.29 459.04 94.29 433.32 115.31 433.32 115.31 425.83 94.29 425.83 94.29 407.6 123.56 407.6 123.56 400.11 94.29 400.11 86.8 400.11"/><rect class="cls-3" x="149.63" y="400.11" width="7.49" height="58.93"/><rect class="cls-3" x="1047.1" y="400.11" width="7.49" height="58.93"/><rect class="cls-3" x="1235.43" y="400.11" width="7.49" height="58.93"/><polygon class="cls-3" points="283.38 400.11 258.6 459.04 266.72 459.04 286.33 412.42 305.95 459.04 314.07 459.04 289.26 400.11 283.38 400.11"/><polygon class="cls-3" points="631.46 400.11 606.68 459.04 614.8 459.04 634.41 412.42 654.03 459.04 662.15 459.04 637.34 400.11 631.46 400.11"/><polygon class="cls-3" points="445.56 400.11 412.63 400.11 412.63 407.14 440.98 407.14 411.71 452.01 407.13 459.04 416.9 459.04 452.68 459.04 452.68 452.01 421.41 452.01 450.22 407.14 454.21 400.92 454.73 400.11 454.21 400.11 445.56 400.11"/><path class="cls-3" d="M506.8,400.11H479.89V459h7.49V433.43H506.8a16.66,16.66,0,0,0,0-33.32Zm-.08,27.06H487.38V406.38h19.34a10.4,10.4,0,0,1,0,20.79Z"/><polygon class="cls-3" points="560.68 400.11 553.19 400.11 553.19 459.04 559.69 459.04 560.68 459.04 587.66 459.04 587.66 452.16 560.68 452.16 560.68 400.11"/><path class="cls-3" d="M799.21,438a14,14,0,0,1-28.09,0V400.11h-7.34v37.55a21.39,21.39,0,0,0,42.77,0V400.11h-7.34Z"/><path class="cls-3" d="M939.54,426.17v6.71h19.13c-1.32,11.14-9.38,19.72-19.13,19.72-10.67,0-19.32-10.27-19.32-22.93s8.65-22.93,19.32-22.93c6.59,0,12.4,3.91,15.89,9.89l4.92-3.35c-4.45-8-12.11-13.3-20.81-13.3-13.77,0-24.94,13.25-24.94,29.59s11.17,29.6,24.94,29.6,24.94-13.25,24.94-29.6c0-1.15-.06-2.28-.17-3.4Z"/><polygon class="cls-3" points="225.29 445.09 196.4 402.34 196.4 402.23 194.89 400.11 193.73 400.11 193.73 400.11 188.91 400.11 188.91 459.04 196.4 459.04 196.4 415.52 225.29 459.04 232.78 459.04 232.78 400.11 225.29 400.11 225.29 445.09"/><polygon class="cls-3" points="374.8 445.09 345.9 402.34 345.9 402.23 344.39 400.11 343.23 400.11 343.23 400.11 338.42 400.11 338.42 459.04 345.9 459.04 345.9 415.52 374.8 459.04 382.29 459.04 382.29 400.11 374.8 400.11 374.8 445.09"/><polygon class="cls-3" points="724.25 445.09 695.36 402.34 695.36 402.23 693.85 400.11 692.68 400.11 692.68 400.11 687.87 400.11 687.87 459.04 695.36 459.04 695.36 415.52 724.25 459.04 731.74 459.04 731.74 400.11 724.25 400.11 724.25 445.09"/><polygon class="cls-3" points="875.02 445.09 846.13 402.34 846.13 402.23 844.62 400.11 843.46 400.11 843.46 400.11 838.64 400.11 838.64 459.04 846.13 459.04 846.13 415.52 875.02 459.04 882.51 459.04 882.51 400.11 875.02 400.11 875.02 445.09"/><polygon class="cls-3" points="1311.15 445.09 1282.26 402.34 1282.26 402.23 1280.75 400.11 1279.58 400.11 1279.58 400.11 1274.77 400.11 1274.77 459.04 1282.26 459.04 1282.26 415.52 1311.15 459.04 1318.64 459.04 1318.64 400.11 1311.15 400.11 1311.15 445.09"/><path class="cls-3" d="M1180.27,400.33H1159v58.93h21.23a25.09,25.09,0,0,0,25.09-25.09v-8.76A25.08,25.08,0,0,0,1180.27,400.33Zm18.21,33.36a19,19,0,0,1-19,19h-12.9V406.92h12.9a19,19,0,0,1,19,19Z"/><path class="cls-3" d="M1399.84,405.8l25.38,0c-17.12,27.83-19.57,53.28-19.57,53.28h7.8c3.51-28.82,24.15-60.77,24.15-60.77h-37.76Z"/><path class="cls-3" d="M1455.56,405.8l25.38,0c-17.12,27.83-19.57,53.28-19.57,53.28h7.8c3.51-28.82,24.15-60.77,24.15-60.77h-37.76Z"/><path class="cls-3" d="M1533.83,438.71c8.18-5.28,15.61-15.21,16-22.28a14.39,14.39,0,0,0,.09-1.62c0-8.75-8.16-15.85-18.23-15.85-9.63,0-17.51,6.49-18.17,14.72h0v5.5h6.92v-4.37c0-5.51,5.06-10,11.3-10s11.3,4.47,11.3,10a8.72,8.72,0,0,1-.15,1.62s.11,6.07-9.83,13.79-17.52,14.37-19.54,21.18V459h36.45v-6.5H1520V450.4A73.74,73.74,0,0,1,1533.83,438.71Z"/><path class="cls-3" d="M1577.62,398.2v7.34h20.72l-12.84,21.09h5.68a11.9,11.9,0,0,1,7.53,2.58c6.23,5.09,5.25,13.09,5.25,13.09a12.72,12.72,0,0,1-25.15,0h-6a18.65,18.65,0,0,0,37.1,0c3-17.35-12.28-22.55-12.28-22.55l13-21.55Z"/><path class="cls-3" d="M1653.29,398c-10.13,0-18.34,13.83-18.34,30.88s8.21,30.87,18.34,30.87,18.35-13.82,18.35-30.87S1663.42,398,1653.29,398Zm0,54.72c-6.46,0-11.69-10.67-11.69-23.84s5.23-23.85,11.69-23.85,11.7,10.68,11.7,23.85S1659.75,452.69,1653.29,452.69Z"/></g></g></svg>