<svg width="375" height="698" viewBox="0 0 375 698" fill="none" xmlns="http://www.w3.org/2000/svg">
<path d="M375 25.0009C375 25.0009 307.187 3.17171 244.199 0.244449C200.626 -1.78056 143.891 9.18356 88.3904 18.061C58.6857 22.8124 -2.34534 25.0042 -2.34534 25.0042L-3 698H375V25.0009Z" fill="#9DBC78"/>
<path d="M360.597 65.8124C371.308 67.6128 375 58.848 375 58.848V162H365.08C365.08 162 290.841 154.521 273.309 119.162C256.053 84.3619 255.49 30.9117 293.351 21.7922C323.891 14.4357 329.614 60.6048 360.597 65.8124Z" fill="white" fill-opacity="0.13"/>
<path d="M-2 69.6752L-1.73936 25.2428C-1.73936 25.2428 23.6962 24.3655 40.2231 23.0146C54.331 21.8614 76.7121 20 76.7121 20C76.7121 20 89.5275 67.2072 70.8478 83.9617C49.1712 103.404 -2 69.6752 -2 69.6752Z" fill="#024A0D" fill-opacity="0.05"/>
</svg>
