<svg width="512" height="228" viewBox="0 0 512 228" fill="none" xmlns="http://www.w3.org/2000/svg">
<path d="M117.59 152.9H123.2V227.33H110.16V152.9H117.59Z" fill="#F8D100"/>
<path d="M117.59 77.9199H123.2V152.9H110.16V77.9199H117.59Z" fill="#E3000F"/>
<path d="M76.11 29.85C79.89 35.88 82.98 35.74 87.46 35.74C83.68 32.94 81.29 29.15 80.03 27.33L73.02 16.12C72.32 12.62 70.5 9.38999 67.83 7.00999C68.67 6.72999 69.51 6.31 69.93 6.03C65.44 6.03 60.82 3.78999 58.44 3.78999C56.9 3.78999 55.78 4.77 55.78 6.03C55.92 7.43 57.32 8.83 59.98 8.83C60.54 8.83 61.38 8.68999 62.22 8.54999C63.62 10.51 64.88 12.33 64.88 15C64.88 19.91 58.99 23.69 53.11 23.69C52.83 23.69 52.41 23.69 52.13 23.69C51.57 22.43 49.89 20.47 49.89 18.08C49.89 14.16 52.41 11.07 52.41 7.14999C52.41 4.76999 51.29 3.22999 50.73 2.65999C51.43 1.95999 52.27 1.12 52.41 0.559998C51.99 0.699998 51.43 0.699997 50.73 0.699997C47.93 0.699997 45.54 0 43.3 0C42.04 0 41.62 0.419996 41.62 0.839996C41.62 0.979996 41.62 1.12 41.62 1.12C41.2 0.979995 40.64 0.839997 40.22 0.699997C39.52 0.559997 38.82 0.559998 38.12 0.559998C35.46 0.559998 34.48 1.67999 34.48 2.65999C34.48 3.49999 35.18 5.03999 35.88 6.15999C37 5.59999 38.26 5.31999 38.82 5.31999C40.22 5.31999 41.62 6.71999 42.18 8.39999C41.2 8.53999 41.06 8.53999 40.08 8.53999C37.42 8.53999 35.59 7.56 35.17 7.56L35.03 7.7C35.03 8.12 35.73 9.09999 37.27 9.65999C39.23 10.36 42.18 10.64 42.6 10.78C42.6 10.92 42.04 11.76 41.48 11.9C41.34 11.9 41.34 11.9 41.2 11.9C39.1 11.48 38.54 11.34 36.01 10.36C35.87 10.36 35.87 10.36 35.87 10.5C35.87 11.48 38.53 13.72 40.92 14.7C38.96 17.22 36.43 19.89 35.31 23.81C35.03 23.81 34.61 23.81 34.33 23.81C28.44 23.81 22.56 20.03 22.56 15.12C22.56 12.46 23.68 10.63 25.22 8.67C26.06 8.81 26.9 8.95 27.46 8.95C30.12 8.95 31.52 7.54999 31.66 6.14999C31.66 4.88999 30.68 3.90999 29 3.90999C26.48 3.90999 21.99 6.14999 17.51 6.14999C17.93 6.42999 18.77 6.84999 19.61 7.12999C16.95 9.50999 15.12 12.74 14.42 16.24L7.43 27.46C6.31 29.28 3.79 32.93 0 35.87C4.49 35.87 7.43 36.01 11.35 29.98L14.85 24.23C15.13 24.93 15.41 25.63 15.83 26.47L8.68 37.82C7.56 39.64 5.04 43.29 1.25 46.23C5.74 46.23 8.68 46.37 12.6 40.34L18.77 30.53C19.19 30.95 19.75 31.51 20.17 31.93L11.48 45.81C10.36 47.63 7.84 51.28 4.05 54.22C8.54 54.22 11.62 54.36 15.4 48.33L23.81 34.87C24.37 35.15 24.93 35.57 25.49 35.85L15.26 52.25C14.14 54.21 11.62 57.72 7.83 60.66C12.32 60.66 15.4 60.8 19.18 54.77L29.69 37.81C30.25 38.09 30.95 38.23 31.65 38.51L19.74 57.57C18.62 59.39 16.1 63.18 12.31 65.98C16.8 65.98 19.74 66.12 23.66 60.09L36.41 39.77C36.55 39.77 36.69 39.77 36.83 39.91C37.11 41.03 37.39 42.01 37.39 43.13C37.39 49.58 33.19 55.18 28.14 59.53C28.42 59.67 28.98 59.67 29.54 59.67C30.52 59.67 31.22 59.67 31.78 59.53C30.66 62.19 28.14 65.56 26.87 67.38C25.19 67.1 22.81 66.82 21.26 66.82C19.58 66.82 19.44 67.8 19.44 68.64C19.44 70.18 20.14 71.3 20.98 72C21.26 71.3 21.96 70.18 24.9 70.18C24.9 70.18 25.04 70.18 25.18 70.18C24.34 71.16 21.54 73.4 21.54 75.23C21.54 76.49 22.8 78.17 24.62 78.17C24.48 77.75 24.48 77.47 24.48 77.19C24.48 75.79 25.74 73.97 26.86 72.85C26.86 73.27 26.86 73.13 26.86 73.55C26.86 77.05 27.14 78.6 29.38 78.6C30.5 78.6 31.2 78.04 31.48 77.9C30.08 76.64 29.94 75.52 29.94 73.56C29.94 73 29.94 72.58 29.94 71.88C29.94 71.46 29.94 70.9 29.8 70.48C30.64 70.34 30.92 70.34 31.48 70.34C31.48 70.34 34.56 70.06 35.4 71.74C36.24 70.9 37.5 69.92 37.5 68.66C37.5 67.82 37.08 66.98 35.54 66.98C34.98 66.98 33.02 67.4 31.34 67.4C31.76 66.42 33.72 63.62 35.4 61.65C35.68 62.49 36.1 63.33 36.94 64.03C37.08 62.77 37.78 58.56 39.88 56.18C40.16 57.86 40.44 59.54 40.44 63.05C40.44 71.74 38.34 78.05 33.99 79.31C34.55 80.29 35.81 81.27 37.07 81.27C38.61 81.27 39.59 79.45 40.43 77.77C40.85 79.03 42.25 82.11 43.51 82.11C44.77 82.11 46.03 79.03 46.59 77.77C47.43 79.45 48.41 81.27 49.95 81.27C51.21 81.27 52.47 80.43 53.03 79.31C48.69 78.05 46.58 71.74 46.58 63.05C46.58 59.55 46.86 57.86 47.14 56.18C49.24 58.56 49.94 62.77 50.08 64.03C50.92 63.33 51.34 62.49 51.62 61.65C53.3 63.75 55.26 66.56 55.68 67.4C54.14 67.4 52.18 66.98 51.48 66.98C49.94 66.98 49.52 67.82 49.52 68.66C49.52 69.92 50.78 70.9 51.62 71.74C52.32 70.06 55.54 70.34 55.54 70.34C56.1 70.34 56.52 70.34 57.22 70.48C57.08 70.9 57.08 71.46 57.08 71.88C57.08 72.58 57.08 73 57.08 73.56C57.08 75.52 56.94 76.5 55.54 77.9C55.82 78.04 56.52 78.6 57.64 78.6C59.88 78.6 60.16 77.06 60.16 73.55C60.16 73.13 60.16 73.13 60.16 72.85C61.28 74.11 62.54 75.79 62.54 77.19C62.54 77.47 62.54 77.75 62.4 78.17C64.08 78.17 65.48 76.35 65.48 75.23C65.48 73.41 62.68 71.17 61.84 70.18C61.98 70.18 62.12 70.18 62.12 70.18C65.2 70.18 65.76 71.16 66.04 72C66.88 71.3 67.58 70.18 67.58 68.64C67.58 67.8 67.44 66.82 65.76 66.82C64.22 66.82 61.84 67.1 60.15 67.38C58.89 65.56 56.37 62.19 55.24 59.53C55.66 59.67 56.36 59.67 57.48 59.67C58.04 59.67 58.6 59.67 58.88 59.53C53.83 55.19 49.63 49.44 49.63 43.13C49.63 42.15 49.91 41.03 50.19 39.91C50.33 39.91 50.47 39.91 50.61 39.77L63.36 60.09C67.14 66.12 70.23 65.98 74.71 65.98C71.07 63.18 68.54 59.39 67.28 57.57L55.37 38.51C56.07 38.37 56.63 38.09 57.33 37.81L67.84 54.77C71.62 60.8 74.71 60.66 79.19 60.66C75.41 57.72 73.02 54.21 71.76 52.25L61.53 35.85C62.09 35.57 62.65 35.15 63.21 34.87L71.62 48.33C75.4 54.36 78.49 54.22 82.97 54.22C79.19 51.28 76.8 47.77 75.54 45.81L66.85 31.93C67.41 31.51 67.83 30.95 68.25 30.53L74.42 40.34C78.2 46.37 81.29 46.23 85.77 46.23C81.99 43.29 79.6 39.78 78.34 37.82L71.19 26.47C71.61 25.77 71.89 25.07 72.17 24.23L76.11 29.85ZM19.06 16.67C19.06 12.47 22.14 9.1 23.26 8.12C23.54 8.12 23.82 8.25999 24.1 8.25999C22.98 9.65999 20.88 12.04 20.88 15.13C20.88 21.3 27.47 26.76 35.04 26.76C35.04 27.32 34.9 27.88 34.9 28.44C34.9 29.42 34.9 30.26 35.04 30.96C26.63 31.11 19.06 24.24 19.06 16.67ZM30.69 67.69V67.83H30.83C33.21 67.83 34.33 67.69 35.17 67.55C35.59 67.55 35.87 67.41 36.15 67.41C36.71 67.41 37.27 67.41 37.27 68.25C37.27 68.81 36.71 69.51 36.15 70.07C35.31 69.23 34.05 69.09 32.23 69.09C31.39 69.09 30.27 69.23 29.71 69.37H29.57H29.43V69.65C29.43 70.21 29.57 70.77 29.57 71.61V72.31V73.29C29.57 75.25 29.85 76.51 30.55 77.35C30.41 77.35 30.13 77.49 29.85 77.49C28.59 77.49 28.17 76.93 28.17 73.29C28.17 72.59 28.17 71.89 28.17 71.47V70.77L28.03 70.91C26.21 72.31 24.25 74.83 24.11 76.8C23.55 76.38 22.99 75.68 22.99 74.98C22.99 74 24.53 72.32 26.35 70.64L27.33 69.66L27.47 69.52L27.19 69.38C26.77 69.24 26.07 69.1 25.51 69.1C23.55 69.1 22.15 69.52 21.45 70.36C21.17 69.94 20.89 68.96 20.89 68.4C20.89 67.98 21.03 67.84 21.17 67.7C21.31 67.56 21.59 67.56 21.87 67.56C24.11 67.56 26.78 67.98 27.76 68.12C27.9 67.84 32.25 62.23 33.37 59.15C33.65 59.01 33.79 59.01 34.35 59.01C35.19 59.01 35.47 59.57 35.61 60.41C32.94 63.48 31.26 66.01 30.69 67.69ZM53.68 58.72C54.1 58.72 54.38 58.86 54.66 58.86C55.78 61.94 59.99 67.55 60.27 67.83C61.25 67.69 64.05 67.27 66.16 67.27C66.44 67.27 66.72 67.27 66.86 67.41C67 67.55 67.14 67.83 67.14 68.11C67.14 68.67 66.86 69.65 66.58 70.07C65.74 69.23 64.48 68.81 62.52 68.81C61.96 68.81 61.12 68.95 60.84 69.09H60.7H60.55L61.67 70.21C63.49 72.03 65.03 73.57 65.03 74.55C65.03 75.11 64.47 75.95 63.91 76.37C63.77 74.41 61.81 71.88 59.99 70.48L59.85 70.34V71.04C59.85 71.46 59.85 72.16 59.85 72.86C59.85 76.5 59.43 77.06 58.17 77.06C58.03 77.06 57.75 77.06 57.47 76.92C58.17 76.08 58.45 74.96 58.45 72.86V71.88V71.18C58.45 70.34 58.59 69.78 58.59 69.22V68.94H58.45C57.89 68.8 56.77 68.66 55.93 68.66C54.11 68.66 52.99 68.8 52.01 69.64C51.45 69.22 50.89 68.38 50.89 67.82C50.89 67.12 51.31 66.98 52.01 66.98C52.29 66.98 52.57 66.98 52.99 67.12C53.69 67.26 54.95 67.4 57.33 67.4H57.47V67.26C56.91 65.58 55.23 63.06 52.56 59.83C52.56 59.28 52.84 58.72 53.68 58.72ZM43.73 9.23999C43.45 8.11999 42.89 6.99999 42.19 6.15999C41.49 5.31999 40.51 4.48 38.97 4.48C38.27 4.48 37.15 4.75999 36.45 5.03999C36.17 4.61999 35.61 3.35999 35.61 2.79999C35.61 2.23999 36.59 1.67999 38.27 1.67999C42.05 1.67999 44.44 3.36 44.44 6.31C44.57 7.42 44.15 8.39999 43.73 9.23999ZM45.55 5.45999C45.41 4.61999 45.13 3.92 44.57 3.22C44.57 2.52 44.85 1.67999 46.11 2.37999C45.41 3.07999 45.97 4.2 45.97 4.2C45.97 4.2 47.37 3.63999 47.09 2.65999C49.06 3.20999 47.51 5.87999 45.55 5.45999ZM52.98 31.11C53.12 30.27 53.12 29.43 53.12 28.59C53.12 28.17 53.12 27.61 53.12 26.91C60.55 26.77 67 21.44 67 15.28C67 12.2 64.9 9.80999 63.78 8.40999C64.06 8.40999 64.34 8.26999 64.62 8.26999C65.74 9.24999 68.82 12.61 68.82 16.82C68.82 24.1 61.39 30.97 52.98 31.11Z" fill="black"/>
<path d="M123.2 3.77979V78.3398H117.59H110.02V3.77979H123.2Z" fill="black"/>
<path d="M347.45 2.93018C345.21 2.93018 343.67 3.63018 342.96 5.17018C342.4 6.15018 342.12 7.83018 342.12 10.0802V12.4602H339.04V14.8402H342.12V33.6202H345.48V14.8402H349.12V12.4602H345.48V9.38017C345.48 8.26017 345.62 7.28018 345.76 6.86018C346.18 6.16018 346.88 5.74017 347.86 5.74017C348.42 5.74017 348.84 5.74017 349.12 5.74017V3.08018C348.57 2.93018 348.15 2.93018 347.45 2.93018ZM150.67 3.07018V33.4802H158.1C161.18 33.4802 163.43 32.9202 164.83 31.6602C166.37 30.4002 167.21 28.1602 167.21 25.0702C167.21 22.9702 166.93 21.2902 166.23 20.1602C165.53 18.9002 164.13 17.9202 162.17 17.5002C163.85 16.9402 165.11 16.1002 165.67 14.9802C166.37 14.0002 166.65 12.4602 166.65 10.6402C166.65 7.98018 165.95 6.01018 164.69 4.75018C163.43 3.63018 161.47 2.93018 158.66 2.93018H150.67V3.07018V3.07018ZM224.25 3.07018V14.2802C223.13 12.6002 221.59 11.7602 219.48 11.7602C216.96 11.7602 215.14 12.8802 214.15 15.2602C213.45 16.9402 213.03 19.3202 213.03 22.5502C213.03 25.9102 213.31 28.5802 214.01 30.1202C214.99 32.5002 216.81 33.7602 219.62 33.7602C221.72 33.7602 223.4 32.7802 224.53 30.9602V33.3402H227.75C227.61 31.3802 227.61 30.1202 227.61 29.4202V3.07018H224.25V3.07018ZM355.72 3.50018V7.56018H358.8V3.50018H355.72ZM362.17 3.50018V7.56018H365.39V3.50018H362.17ZM154.31 6.02017H157.81C159.63 6.02017 160.89 6.30018 161.73 7.00018C162.71 7.70018 163.13 9.10018 163.13 10.9202C163.13 14.5602 161.45 16.3902 157.94 16.3902H154.16V6.02017H154.31V6.02017ZM322.79 7.00018L319.43 8.54018V12.4602H316.21V14.8402H319.43V28.5802C319.43 30.5402 319.71 31.8002 320.27 32.5002C320.97 33.3402 322.23 33.7602 324.19 33.7602C324.75 33.7602 325.59 33.7602 326.71 33.6202V30.9602C325.87 31.1002 325.31 31.1002 325.17 31.1002C324.19 31.1002 323.63 30.9602 323.21 30.5402C322.93 30.1202 322.65 29.2802 322.65 28.1602V14.8402H326.43V12.4602H322.65V6.99017H322.79V7.00018ZM201.97 11.9002C199.45 11.9002 197.63 13.0202 196.5 15.2602V12.3202H193.14C193.28 13.5802 193.28 15.1202 193.28 16.9502V33.4902H196.64V20.7402C196.64 19.0602 196.92 17.6602 197.62 16.4002C198.46 15.0002 199.44 14.3002 200.98 14.3002C202.38 14.3002 203.36 14.8602 203.92 16.1202C204.2 16.8202 204.34 18.0802 204.34 19.9002V33.5002H207.7V18.5002C207.58 14.1502 205.75 11.9002 201.97 11.9002ZM240.65 11.9002C237.43 11.9002 235.18 13.1602 234.2 15.6802C233.5 17.3602 233.22 20.0202 233.22 23.8102C233.22 27.1702 233.64 29.5602 234.48 30.9602C235.6 32.9202 237.56 33.9002 240.51 33.9002C245 33.9002 247.38 31.5202 247.66 26.8902H244.44C244.3 29.9702 243.04 31.5202 240.66 31.5202C238.98 31.5202 238 30.8202 237.44 29.4202C237.02 28.4402 236.88 26.9002 236.88 24.7902V23.3902H247.95V22.4102C247.95 19.0502 247.67 16.6602 246.97 15.2602C245.7 13.0302 243.74 11.9002 240.65 11.9002ZM258.45 11.9002C256.63 11.9002 255.09 12.3202 253.96 13.3002C252.7 14.2802 252.14 15.6802 252.14 17.5002C252.14 19.1802 252.7 20.4402 253.82 21.4202C254.38 21.9802 255.64 22.6802 257.6 23.8002C259 24.6402 259.98 25.2002 260.4 25.6202C261.1 26.3202 261.38 27.1602 261.38 28.4202C261.38 30.6602 260.26 31.6402 258.16 31.6402C256.34 31.6402 255.22 30.5202 255.08 28.2802C255.08 27.8602 255.08 27.5802 255.08 27.1602H251.72C251.58 31.7902 253.82 34.0302 258.17 34.0302C262.66 34.0302 264.76 31.9302 264.76 27.8602C264.76 26.3202 264.2 24.9202 263.22 23.9402C262.52 23.2402 261.4 22.5402 259.72 21.5602C258.18 20.7202 257.2 20.1602 256.78 19.7402C255.94 19.0402 255.52 18.2002 255.52 17.2202C255.52 16.3802 255.8 15.6802 256.36 15.1202C256.92 14.5602 257.62 14.2802 258.46 14.2802C260.42 14.2802 261.4 15.5402 261.4 18.2002H264.76C264.76 16.1002 264.2 14.4202 263.22 13.4302C262.24 12.4702 260.7 11.9002 258.45 11.9002ZM276.25 11.9002C274.15 11.9002 272.61 12.3202 271.34 13.1602C269.94 14.1402 269.24 15.5402 269.24 17.5002V17.6402H272.6V17.5002C272.6 16.5202 272.88 15.6802 273.58 15.1202C274.28 14.5602 275.12 14.2802 276.1 14.2802C277.5 14.2802 278.48 14.8402 278.9 15.9602C279.18 16.6602 279.32 17.7802 279.32 19.6002V20.5802C275.82 20.5802 273.29 21.0002 271.75 21.7002C269.51 22.6802 268.25 24.7802 268.25 27.7302C268.25 29.5502 268.67 31.0902 269.51 32.2202C270.49 33.3402 271.89 34.0402 273.71 34.0402C276.09 34.0402 277.91 33.0602 279.46 30.9602V33.7602H282.68C282.54 31.8002 282.4 29.5602 282.4 27.0302V19.1802C282.4 16.6602 281.98 14.9802 281 13.8502C280.32 12.4702 278.64 11.9002 276.25 11.9002ZM297 11.9002C294.76 11.9002 293.08 13.0202 291.95 15.1202V12.3202H288.59C288.73 13.4402 288.73 14.7002 288.73 15.9602V33.4802H292.09V20.4502C292.09 18.7702 292.37 17.2302 292.93 16.2502C293.63 14.9902 294.61 14.4302 295.87 14.4302C297.13 14.4302 298.11 14.9902 298.39 15.9702C298.67 16.5302 298.67 17.5102 298.67 19.0502V33.4902H302.03V20.1702C302.03 16.3902 303.29 14.4202 305.81 14.4202C307.07 14.4202 307.91 14.9802 308.33 15.9602C308.61 16.6602 308.75 17.6402 308.75 19.1802V33.4802H312.11V19.0402C312.11 16.5202 311.69 14.8402 310.99 13.7102C310.15 12.4502 308.75 11.7502 306.93 11.7502C304.69 11.7502 302.87 12.8702 301.74 14.9702C301.06 13.0302 299.38 11.9002 297 11.9002ZM382.35 11.9002C379.97 11.9002 378.15 13.0202 377.02 15.1202V12.3202H373.8C373.94 13.4402 373.94 14.7002 373.94 16.1002V33.4802H377.3V20.3102C377.3 18.6302 377.72 17.3702 378.56 16.3902C379.4 15.4102 380.52 14.8502 382.2 14.8502C382.34 14.8502 382.62 14.8502 382.9 14.9902C382.77 13.0302 382.63 11.9002 382.35 11.9002ZM172.82 12.3302V27.3302C172.82 31.6702 174.78 33.9202 178.57 33.9202C180.81 33.9202 182.63 32.9402 183.9 30.8402V33.5002H187.26C187.12 32.1002 187.12 30.5602 187.12 28.8702V12.3302H183.76V25.2202C183.76 29.2802 182.36 31.3902 179.56 31.3902C178.02 31.3902 177.18 30.8302 176.62 29.5702C176.34 28.8702 176.2 27.6102 176.2 25.9302V12.3302H172.82ZM353.34 12.3302V27.3302C353.34 31.6702 355.3 33.9202 359.09 33.9202C361.33 33.9202 363.15 32.9402 364.42 30.8402V33.5002H367.78C367.64 32.1002 367.64 30.5602 367.64 28.8702V12.3302H364.28V25.2202C364.28 29.2802 362.88 31.3902 360.08 31.3902C358.54 31.3902 357.56 30.8302 357.14 29.5702C356.86 28.8702 356.72 27.6102 356.72 25.9302V12.3302H353.34ZM240.65 14.2902C242.33 14.2902 243.45 15.1302 243.87 16.8102C244.15 17.6502 244.29 19.0502 244.29 21.1502H236.58C236.58 20.3102 236.58 19.3302 236.72 18.3502C237.01 15.6902 238.27 14.2902 240.65 14.2902ZM220.33 14.2902C222.01 14.2902 223.13 15.2702 223.69 16.9502C224.11 18.2102 224.39 20.1702 224.39 23.1202C224.39 25.7802 224.25 27.6102 223.83 28.7302C223.27 30.5502 222.01 31.3902 220.33 31.3902C218.79 31.3902 217.67 30.5502 217.11 28.7302C216.69 27.4702 216.41 25.3702 216.41 22.5602C216.41 20.0402 216.55 18.0702 216.97 16.9502C217.67 15.2702 218.79 14.2902 220.33 14.2902ZM154.31 19.1902H158.09C160.05 19.1902 161.45 19.6102 162.29 20.5902C163.13 21.5702 163.55 22.9702 163.55 25.0802C163.55 27.3202 162.99 28.8602 162.01 29.7102C161.17 30.4102 159.63 30.6902 157.52 30.6902H154.3L154.31 19.1902ZM278.5 22.8402H279.34V25.3602C279.34 27.0402 279.06 28.3002 278.5 29.4202C277.8 30.8202 276.54 31.5202 275 31.5202C272.9 31.5202 271.92 30.1202 271.92 27.4602C271.91 24.3802 274.01 22.8402 278.5 22.8402ZM147.87 47.9302L155.86 78.3402H160.2L168.19 47.9302H164.69L158.1 74.9802L151.65 47.9302H147.87ZM202.53 47.9302V74.2802C202.53 75.1202 202.53 76.3802 202.39 78.3402H205.61V75.9602C206.73 77.7802 208.41 78.7602 210.66 78.7602C213.46 78.7602 215.29 77.5002 216.27 74.9802C216.83 73.3002 217.25 70.9202 217.25 67.5502C217.25 64.3302 216.97 61.9402 216.41 60.4002C215.43 58.0202 213.75 56.7602 211.08 56.7602C208.98 56.7602 207.3 57.6002 206.03 59.4202V47.9302H202.53ZM292.23 47.9302V78.3402H295.59V65.4502C295.59 61.2502 296.99 59.1402 299.93 59.1402C301.33 59.1402 302.31 59.7002 302.87 60.9602C303.15 61.6602 303.29 62.9202 303.29 64.7402V78.3402H306.65V63.3402C306.65 58.8502 304.83 56.6102 301.04 56.6102C298.8 56.6102 297.12 57.5902 295.71 59.5502V47.9202H292.23V47.9302ZM378.57 47.9302V78.3402H381.93V65.4502C381.93 61.2502 383.33 59.1402 386.27 59.1402C387.67 59.1402 388.65 59.7002 389.21 60.9602C389.49 61.6602 389.63 62.9202 389.63 64.7402V78.3402H392.99V63.3402C392.99 58.8502 391.17 56.6102 387.38 56.6102C385.14 56.6102 383.46 57.5902 382.05 59.5502V47.9202H378.57V47.9302ZM508.5 47.9302V59.1402C507.38 57.4602 505.84 56.6202 503.73 56.6202C501.21 56.6202 499.39 57.7402 498.4 60.1202C497.7 61.8002 497.28 64.1802 497.28 67.4102C497.28 70.7702 497.56 73.3002 498.26 74.9802C499.24 77.3602 501.06 78.6202 503.87 78.6202C505.97 78.6202 507.65 77.6402 508.78 75.8202V78.3402H512C511.86 76.3802 511.86 75.1202 511.86 74.2802V47.9302H508.5V47.9302ZM423.98 51.7102L420.62 53.2502V57.1702H417.4V59.6902H420.62V73.4302C420.62 75.3902 420.9 76.6502 421.46 77.4902C422.16 78.3302 423.42 78.7502 425.38 78.7502C425.94 78.7502 426.78 78.7502 427.76 78.6102V75.9502C426.92 76.0902 426.36 76.0902 426.22 76.0902C425.24 76.0902 424.68 75.9502 424.26 75.5302C423.98 75.1102 423.7 74.4102 423.7 73.1502V59.8302H427.48V57.3102H423.7V51.7002H423.98V51.7102ZM177.3 56.6202C174.08 56.6202 171.83 57.8802 170.85 60.4002C170.15 62.0802 169.87 64.7402 169.87 68.5302C169.87 71.8902 170.29 74.2802 171.13 75.6802C172.25 77.6402 174.21 78.7602 177.16 78.7602C181.65 78.7602 184.03 76.3802 184.31 71.6102H181.09C180.95 74.6902 179.69 76.2402 177.31 76.2402C175.63 76.2402 174.65 75.5402 174.09 74.1402C173.67 73.1602 173.53 71.6202 173.53 69.5102V68.1102H184.6V67.1302C184.6 63.7702 184.32 61.3802 183.62 59.9802C182.35 57.7402 180.38 56.6202 177.3 56.6202ZM241.35 56.6202C239.25 56.6202 237.71 57.0402 236.44 57.8802C235.04 58.8602 234.34 60.2602 234.34 62.2202V62.5002H237.7V62.2202C237.7 61.2402 237.98 60.4002 238.68 59.8402C239.38 59.2802 240.22 59.0002 241.2 59.0002C242.6 59.0002 243.58 59.5602 244.14 60.6802C244.42 61.3802 244.56 62.5002 244.56 64.3202V65.3002C241.06 65.3002 238.53 65.7202 237.13 66.4202C234.89 67.4002 233.63 69.5002 233.63 72.4502C233.63 74.2702 234.05 75.8102 234.89 76.9402C235.87 78.0602 237.27 78.7602 239.09 78.7602C241.47 78.7602 243.29 77.7802 244.84 75.6802V78.4802H248.06C247.92 76.5202 247.92 74.2802 247.92 71.7502V63.9002C247.92 61.3802 247.5 59.7002 246.52 58.5702C245.56 57.1802 243.88 56.6202 241.35 56.6202ZM281.02 56.6202C277.94 56.6202 275.83 57.8802 274.71 60.2602C274.01 61.8002 273.59 64.4602 273.59 68.1102C273.59 71.7602 274.01 74.4202 274.85 75.8202C275.83 77.7802 277.93 78.7602 280.88 78.7602C285.22 78.7602 287.47 76.3802 287.47 71.7502H284.25C284.25 73.1502 283.97 74.2702 283.55 74.9702C282.99 75.9502 282.15 76.3702 280.75 76.3702C279.21 76.3702 278.23 75.6702 277.67 74.2702C277.25 73.0102 276.97 70.9102 276.97 67.6802C276.97 64.8802 277.11 62.9102 277.39 61.7902C277.95 59.9702 279.07 58.9902 280.75 58.9902C282.99 58.9902 283.97 60.5302 283.97 63.4802H287.19C287.19 61.1002 286.77 59.4202 285.79 58.2902C285.22 57.1802 283.54 56.6202 281.02 56.6202ZM319.56 56.6202C316.34 56.6202 314.09 57.8802 313.11 60.4002C312.41 62.0802 312.13 64.7402 312.13 68.5302C312.13 71.8902 312.55 74.2802 313.39 75.6802C314.51 77.6402 316.47 78.7602 319.42 78.7602C323.91 78.7602 326.29 76.3802 326.57 71.6102H323.35C323.21 74.6902 321.95 76.2402 319.57 76.2402C317.89 76.2402 316.91 75.5402 316.35 74.1402C315.93 73.1602 315.79 71.6202 315.79 69.5102V68.1102H326.86V67.1302C326.86 63.7702 326.58 61.3802 325.88 59.9802C324.61 57.7402 322.51 56.6202 319.56 56.6202ZM349.56 56.6202C347.74 56.6202 346.2 57.0402 345.07 58.0202C343.81 59.0002 343.25 60.4002 343.25 62.2202C343.25 63.9002 343.81 65.1602 344.79 66.1402C345.35 66.7002 346.61 67.4002 348.57 68.5202C349.97 69.3602 350.95 69.9202 351.37 70.3402C352.07 71.0402 352.35 72.0202 352.35 73.1402C352.35 75.3802 351.23 76.3602 349.13 76.3602C347.31 76.3602 346.19 75.2402 346.05 73.0002C346.05 72.5802 346.05 72.3002 346.05 71.8802H342.69C342.55 76.5102 344.79 78.7502 349.14 78.7502C353.63 78.7502 355.73 76.6502 355.73 72.5802C355.73 71.0402 355.17 69.6402 354.19 68.6602C353.49 67.9602 352.37 67.2602 350.69 66.2802C349.15 65.4402 348.17 64.8802 347.75 64.4602C346.91 63.7602 346.49 62.9202 346.49 62.0802C346.49 61.2402 346.77 60.5402 347.33 59.9802C347.89 59.4202 348.59 59.1402 349.43 59.1402C351.39 59.1402 352.37 60.4002 352.37 63.0602H355.73C355.73 60.9602 355.17 59.4202 354.19 58.2902C353.34 57.1802 351.8 56.6202 349.56 56.6202ZM367.36 56.6202C364.28 56.6202 362.03 57.8802 361.05 60.2602C360.35 61.8002 360.07 64.4602 360.07 68.1102C360.07 71.7602 360.49 74.4202 361.19 75.8202C362.17 77.7802 364.27 78.7602 367.36 78.7602C371.7 78.7602 373.95 76.3802 373.95 71.7502H370.73C370.73 73.1502 370.45 74.2702 370.03 74.9702C369.47 75.9502 368.63 76.3702 367.23 76.3702C365.69 76.3702 364.71 75.6702 364.15 74.2702C363.73 73.0102 363.45 70.9102 363.45 67.6802C363.45 64.8802 363.59 62.9102 363.87 61.7902C364.43 59.9702 365.55 58.9902 367.23 58.9902C369.47 58.9902 370.45 60.5302 370.45 63.4802H373.67C373.67 61.1002 373.25 59.4202 372.27 58.2902C371.56 57.1802 369.88 56.6202 367.36 56.6202ZM486.21 56.6202C483.69 56.6202 481.87 57.7402 480.74 59.9802V57.0402H477.52C477.66 58.3002 477.66 59.8402 477.66 61.6702V78.2102H481.02V65.4602C481.02 63.7802 481.3 62.3802 482 61.1202C482.84 59.7202 483.82 59.0202 485.36 59.0202C486.76 59.0202 487.74 59.5802 488.3 60.8402C488.58 61.5402 488.72 62.8002 488.72 64.6202V78.2202H492.08V63.0602C491.68 58.8602 489.85 56.6202 486.21 56.6202ZM198.18 56.6202C195.8 56.6202 193.98 57.7402 192.85 59.8402V57.0402H189.63C189.77 58.1602 189.77 59.4202 189.77 60.9602V78.3402H193.13V65.1702C193.13 63.4902 193.55 62.2302 194.39 61.2502C195.23 60.2702 196.35 59.8502 198.03 59.8502C198.17 59.8502 198.45 59.8502 198.73 59.9902C198.46 57.7402 198.32 56.6202 198.18 56.6202ZM231.12 56.6202C228.74 56.6202 226.92 57.7402 225.79 59.8402V57.0402H222.57C222.71 58.1602 222.71 59.4202 222.71 60.9602V78.3402H226.07V65.1702C226.07 63.4902 226.49 62.2302 227.33 61.2502C228.17 60.2702 229.29 59.8502 230.97 59.8502C231.11 59.8502 231.39 59.8502 231.67 59.9902C231.4 57.7402 231.26 56.6202 231.12 56.6202ZM340.31 56.6202C337.93 56.6202 336.11 57.7402 334.98 59.8402V57.0402H331.76C331.9 58.1602 331.9 59.4202 331.9 60.9602V78.3402H335.26V65.1702C335.26 63.4902 335.68 62.2302 336.52 61.2502C337.36 60.2702 338.48 59.8502 340.16 59.8502C340.3 59.8502 340.58 59.8502 340.86 59.9902C340.59 57.7402 340.59 56.6202 340.31 56.6202ZM254.11 57.0402V72.0402C254.11 76.3802 255.93 78.6302 259.72 78.6302C261.96 78.6302 263.78 77.6502 265.05 75.5502V78.2102H268.41C268.27 76.8102 268.27 75.1302 268.27 73.5802V57.0402H264.91V69.9302C264.91 73.9902 263.51 76.1002 260.71 76.1002C259.17 76.1002 258.19 75.5402 257.77 74.2802C257.49 73.5802 257.35 72.3202 257.35 70.6402V57.0402H254.11ZM399.17 57.0402V72.0402C399.17 76.3802 401.13 78.6302 404.92 78.6302C407.16 78.6302 408.98 77.6502 410.25 75.5502V78.2102H413.61C413.47 76.8102 413.47 75.1302 413.47 73.5802V57.0402H410.11V69.9302C410.11 73.9902 408.71 76.1002 405.91 76.1002C404.37 76.1002 403.39 75.5402 402.97 74.2802C402.69 73.5802 402.55 72.3202 402.55 70.6402V57.0402H399.17ZM430.85 57.0402V59.5602H438.7L430.43 75.6802V78.3402H442.34V75.8202H433.93L442.2 59.7002V57.0402H430.85ZM457.06 57.0402V72.0402C457.06 76.3802 459.02 78.6302 462.81 78.6302C465.05 78.6302 466.87 77.6502 468.14 75.5502V78.2102H471.5C471.36 76.8102 471.36 75.1302 471.36 73.5802V57.0402H467.86V69.9302C467.86 73.9902 466.46 76.1002 463.66 76.1002C462.12 76.1002 461.28 75.5402 460.72 74.2802C460.44 73.5802 460.3 72.3202 460.3 70.6402V57.0402H457.06ZM177.3 59.0002C178.98 59.0002 180.1 59.8402 180.52 61.5202C180.8 62.3602 180.94 63.7602 180.94 65.8602H173.23C173.23 65.0202 173.23 64.0402 173.37 63.0602C173.66 60.4002 175.06 59.0002 177.3 59.0002ZM319.42 59.0002C321.1 59.0002 322.22 59.8402 322.64 61.5202C322.92 62.3602 323.06 63.7602 323.06 65.8602H315.35C315.35 65.0202 315.35 64.0402 315.49 63.0602C315.92 60.4002 317.18 59.0002 319.42 59.0002ZM209.96 59.0002C211.64 59.0002 212.76 59.9802 213.32 62.0802C213.6 63.2002 213.74 64.8802 213.74 67.1302C213.74 70.7702 213.32 73.1602 212.48 74.4202C211.78 75.5402 210.94 75.9602 209.82 75.9602C208.28 75.9602 207.16 75.2602 206.46 73.8602C205.9 72.7402 205.62 70.6402 205.62 67.5502C205.62 63.9102 206.04 61.5202 206.88 60.4002C207.72 59.5602 208.7 59.0002 209.96 59.0002ZM504.57 59.0002C506.25 59.0002 507.37 59.8402 507.93 61.6602C508.35 62.9202 508.63 65.0202 508.63 67.8302C508.63 70.4902 508.49 72.3202 508.07 73.4402C507.51 75.2602 506.25 76.1002 504.43 76.1002C502.89 76.1002 501.91 75.2602 501.21 73.4402C500.79 72.1802 500.51 70.0802 500.51 67.4102C500.51 64.8902 500.65 62.9202 501.07 61.8002C501.77 59.9802 502.89 59.0002 504.57 59.0002ZM243.74 67.5502H244.58V70.0702C244.58 71.7502 244.3 73.1502 243.74 74.1302C243.04 75.5302 241.78 76.0902 240.24 76.0902C238.14 76.0902 237.16 74.6902 237.16 72.0302C237.15 69.0902 239.25 67.5502 243.74 67.5502ZM150.67 92.6402V123.05H163.84V120.11H154.31V92.5002H150.67V92.6402ZM187.11 92.6402V118.99C187.11 119.83 187.11 121.09 186.97 123.05H190.19V120.53C191.31 122.35 192.99 123.33 195.24 123.33C198.04 123.33 199.87 122.07 200.85 119.55C201.41 117.87 201.83 115.35 201.83 111.98C201.83 108.76 201.55 106.37 200.99 104.97C200.01 102.59 198.33 101.33 195.66 101.33C193.56 101.33 191.88 102.17 190.61 103.99V92.6402H187.11ZM346.47 92.6402V123.05H349.83V92.6402H348.15H346.47ZM400.15 92.6402V123.05H403.51V110.16C403.51 105.96 404.91 103.85 407.71 103.85C409.11 103.85 410.09 104.55 410.65 105.67C410.93 106.37 411.07 107.63 411.07 109.45V123.05H414.43V108.05C414.43 103.56 412.61 101.46 408.82 101.46C406.58 101.46 404.9 102.44 403.49 104.4V92.7702H400.15V92.6402ZM452.57 92.6402V123.05H455.93V110.16C455.93 105.96 457.33 103.85 460.27 103.85C461.67 103.85 462.65 104.55 463.21 105.67C463.49 106.37 463.63 107.63 463.63 109.45V123.05H466.99V108.05C466.99 103.56 465.17 101.46 461.38 101.46C459.14 101.46 457.46 102.44 456.05 104.4V92.7702H452.55V92.6402H452.57ZM292.93 93.0602V96.7002H296.57V93.0602H292.93ZM372.68 93.0602V96.7002H376.32V93.0602H372.68ZM491.96 93.0602V96.7002H495.6V93.0602H491.96ZM307.09 96.4202L303.73 97.9602V101.88H300.51V104.26H303.73V118C303.73 119.96 304.01 121.22 304.57 121.92C305.27 122.76 306.53 123.18 308.49 123.18C309.05 123.18 309.89 123.18 311.01 123.04V120.38C310.17 120.52 309.61 120.52 309.47 120.52C308.49 120.52 307.93 120.38 307.65 119.96C307.37 119.54 307.09 118.7 307.09 117.58V104.26H310.87V101.88H307.09V96.4202V96.4202ZM319.42 96.4202L316.06 97.9602V101.88H312.84V104.26H316.06V118C316.06 119.96 316.34 121.22 316.9 121.92C317.6 122.76 318.86 123.18 320.82 123.18C321.38 123.18 322.22 123.18 323.2 123.04V120.38C322.36 120.52 321.8 120.52 321.66 120.52C320.68 120.52 320.12 120.38 319.7 119.96C319.42 119.54 319.14 118.7 319.14 117.58V104.26H322.92V101.88H319.14V96.4102H319.42V96.4202ZM505.97 96.4202L502.61 97.9602V101.88H499.39V104.26H502.61V118C502.61 119.96 502.89 121.22 503.45 121.92C504.15 122.76 505.41 123.18 507.37 123.18C507.93 123.18 508.77 123.18 509.89 123.04V120.38C509.05 120.52 508.49 120.52 508.35 120.52C507.37 120.52 506.81 120.38 506.39 119.96C506.11 119.54 505.83 118.7 505.83 117.58V104.26H509.61V101.88H505.83V96.4102H505.97V96.4202ZM174.92 101.33C171.7 101.33 169.45 102.59 168.47 105.11C167.77 106.79 167.49 109.45 167.49 113.24C167.49 116.6 167.91 118.99 168.75 120.39C169.87 122.35 171.83 123.33 174.78 123.33C179.27 123.33 181.65 120.95 181.93 116.32H178.71C178.57 119.4 177.31 120.95 174.93 120.95C173.25 120.95 172.27 120.25 171.71 118.85C171.29 117.87 171.15 116.33 171.15 114.22V112.82H182.22V111.84C182.22 108.48 181.94 106.09 181.24 104.69C179.96 102.45 177.86 101.33 174.92 101.33ZM213.88 101.33C210.66 101.33 208.55 102.59 207.43 105.11C206.73 106.79 206.31 109.45 206.31 113.24C206.31 116.6 206.73 118.99 207.57 120.39C208.69 122.35 210.65 123.33 213.6 123.33C218.09 123.33 220.47 120.95 220.75 116.32H217.53C217.39 119.4 216.13 120.95 213.75 120.95C212.07 120.95 211.09 120.25 210.53 118.85C210.11 117.87 209.97 116.33 209.97 114.22V112.82H221.04V111.84C221.04 108.48 220.76 106.09 220.06 104.69C218.93 102.45 216.97 101.33 213.88 101.33ZM234.91 101.33C232.39 101.33 230.57 102.45 229.44 104.69V101.75H226.22C226.36 103.01 226.36 104.41 226.36 106.38V122.92H229.72V110.16C229.72 108.48 230 107.08 230.7 105.82C231.54 104.42 232.52 103.72 234.06 103.72C235.46 103.72 236.44 104.42 237 105.54C237.28 106.24 237.42 107.5 237.42 109.32V122.92H240.78V107.78C240.51 103.57 238.55 101.33 234.91 101.33ZM252.29 101.33C250.47 101.33 248.93 101.75 247.8 102.73C246.54 103.71 245.98 105.11 245.98 106.93C245.98 108.61 246.54 109.87 247.66 110.85C248.22 111.41 249.48 112.11 251.44 113.23C252.84 114.07 253.82 114.63 254.24 115.05C254.94 115.75 255.22 116.59 255.22 117.85C255.22 120.09 254.1 121.07 252 121.07C250.18 121.07 249.06 119.95 248.92 117.71C248.92 117.29 248.92 117.01 248.92 116.59H245.56C245.42 121.22 247.66 123.46 252.01 123.46C256.5 123.46 258.74 121.36 258.74 117.29C258.74 115.75 258.18 114.35 257.2 113.23C256.5 112.53 255.38 111.83 253.7 110.85C252.16 110.01 251.04 109.31 250.62 109.03C249.78 108.33 249.36 107.49 249.36 106.65C249.36 105.81 249.64 105.11 250.06 104.55C250.62 103.99 251.32 103.71 252.16 103.71C254.12 103.71 255.1 104.97 255.1 107.63H258.46C258.46 105.53 257.9 103.85 256.92 102.86C255.93 101.89 254.39 101.33 252.29 101.33ZM271.63 101.33C269.39 101.33 267.71 102.45 266.58 104.55V101.75H263.22C263.36 102.87 263.36 104.13 263.36 105.39V122.91H266.72V109.88C266.72 108.2 267 106.66 267.56 105.68C268.26 104.42 269.24 103.86 270.5 103.86C271.76 103.86 272.74 104.42 273.02 105.4C273.3 105.96 273.3 106.94 273.3 108.48V122.92H276.66V109.6C276.66 105.82 277.92 103.85 280.44 103.85C281.7 103.85 282.54 104.41 282.96 105.39C283.24 106.09 283.38 107.07 283.38 108.61V122.91H286.74V108.47C286.74 105.95 286.32 104.27 285.62 103.14C284.78 101.88 283.52 101.18 281.56 101.18C279.32 101.18 277.5 102.3 276.23 104.4C275.69 102.45 274.15 101.33 271.63 101.33ZM334.28 101.33C331.06 101.33 328.81 102.59 327.83 105.11C327.13 106.79 326.85 109.45 326.85 113.24C326.85 116.6 327.27 118.99 328.11 120.39C329.23 122.35 331.19 123.33 334.14 123.33C338.63 123.33 341.01 120.95 341.29 116.32H338.07C337.93 119.4 336.67 120.95 334.29 120.95C332.61 120.95 331.63 120.25 331.07 118.85C330.65 117.87 330.51 116.33 330.51 114.22V112.82H341.58V111.84C341.58 108.48 341.3 106.09 340.6 104.69C339.32 102.45 337.22 101.33 334.28 101.33ZM361.61 101.33C359.79 101.33 358.25 101.75 357.12 102.73C355.86 103.71 355.3 105.11 355.3 106.93C355.3 108.61 355.86 109.87 356.98 110.85C357.54 111.41 358.8 112.11 360.76 113.23C362.16 114.07 363.14 114.63 363.56 115.05C364.26 115.75 364.54 116.59 364.54 117.85C364.54 120.09 363.42 121.07 361.32 121.07C359.5 121.07 358.38 119.95 358.24 117.71C358.24 117.29 358.24 117.01 358.24 116.59H354.88C354.74 121.22 356.98 123.46 361.33 123.46C365.82 123.46 367.92 121.36 367.92 117.29C367.92 115.75 367.36 114.35 366.38 113.23C365.68 112.53 364.56 111.83 362.88 110.85C361.34 110.01 360.36 109.31 359.94 109.03C359.1 108.33 358.68 107.49 358.68 106.65C358.68 105.81 358.96 105.11 359.52 104.55C360.08 103.99 360.78 103.71 361.62 103.71C363.58 103.71 364.56 104.97 364.56 107.63H367.92C367.92 105.53 367.36 103.85 366.38 102.86C365.39 101.89 363.85 101.33 361.61 101.33ZM389.08 101.33C386 101.33 383.89 102.45 382.77 104.83C382.07 106.37 381.65 109.03 381.65 112.68C381.65 116.32 382.07 118.99 382.77 120.39C383.75 122.35 385.85 123.33 388.94 123.33C393.28 123.33 395.53 120.95 395.53 116.32H392.31C392.31 117.72 392.03 118.84 391.61 119.54C391.05 120.52 390.21 120.94 388.81 120.94C387.27 120.94 386.29 120.24 385.73 118.98C385.31 117.72 385.03 115.62 385.03 112.39C385.03 109.59 385.17 107.62 385.45 106.5C386.01 104.68 387.13 103.7 388.81 103.7C391.05 103.7 392.03 105.24 392.03 108.19H395.25C395.25 105.81 394.83 104.13 393.85 103C393.15 101.89 391.46 101.33 389.08 101.33ZM427.48 101.33C424.26 101.33 422.15 102.59 421.03 105.11C420.33 106.79 419.91 109.45 419.91 113.24C419.91 116.6 420.33 118.99 421.17 120.39C422.29 122.35 424.25 123.33 427.2 123.33C431.69 123.33 434.07 120.95 434.35 116.32H431.13C430.99 119.4 429.73 120.95 427.35 120.95C425.67 120.95 424.69 120.25 424.13 118.85C423.71 117.87 423.57 116.33 423.57 114.22V112.82H434.64V111.84C434.64 108.48 434.36 106.09 433.66 104.69C432.53 102.45 430.43 101.33 427.48 101.33ZM479.76 101.33C476.54 101.33 474.29 102.59 473.31 105.11C472.61 106.79 472.33 109.45 472.33 113.24C472.33 116.6 472.75 118.99 473.59 120.39C474.71 122.35 476.67 123.33 479.62 123.33C484.11 123.33 486.49 120.95 486.77 116.32H483.55C483.41 119.4 482.15 120.95 479.77 120.95C478.09 120.95 477.11 120.25 476.55 118.85C476.13 117.87 475.99 116.33 475.99 114.22V112.82H487.06V111.84C487.06 108.48 486.78 106.09 486.08 104.69C484.81 102.45 482.85 101.33 479.76 101.33ZM448.23 101.33C445.85 101.33 444.03 102.45 442.9 104.55V101.75H439.68C439.82 102.87 439.82 104.13 439.82 105.67V123.05H443.18V109.88C443.18 108.2 443.6 106.94 444.44 105.96C445.28 104.98 446.4 104.42 448.08 104.42C448.22 104.42 448.5 104.42 448.78 104.56C448.65 102.45 448.51 101.33 448.23 101.33ZM293.21 101.75V123.05H296.57V101.75H293.21ZM372.96 101.75V123.05H376.32V101.75H372.96ZM492.1 101.75V123.05H495.46V101.75H492.1ZM174.78 103.71C176.46 103.71 177.58 104.55 178 106.23C178.28 107.07 178.42 108.47 178.42 110.57H170.71C170.71 109.73 170.71 108.75 170.85 107.77C171.27 105.11 172.54 103.71 174.78 103.71ZM213.88 103.71C215.56 103.71 216.68 104.55 217.1 106.23C217.38 107.07 217.52 108.47 217.52 110.57H209.81C209.81 109.73 209.81 108.75 209.95 107.77C210.24 105.11 211.64 103.71 213.88 103.71ZM334.14 103.71C335.82 103.71 336.94 104.55 337.36 106.23C337.64 107.07 337.78 108.47 337.78 110.57H330.07C330.07 109.73 330.07 108.75 330.21 107.77C330.63 105.11 331.9 103.71 334.14 103.71ZM427.34 103.71C429.02 103.71 430.14 104.55 430.56 106.23C430.84 107.07 430.98 108.47 430.98 110.57H423.27C423.27 109.73 423.27 108.75 423.41 107.77C423.84 105.11 425.1 103.71 427.34 103.71ZM479.76 103.71C481.44 103.71 482.56 104.55 482.98 106.23C483.26 107.07 483.4 108.47 483.4 110.57H475.69C475.69 109.73 475.69 108.75 475.83 107.77C476.12 105.11 477.38 103.71 479.76 103.71ZM194.68 103.85C196.36 103.85 197.48 104.83 198.04 106.93C198.32 108.05 198.46 109.73 198.46 111.98C198.46 115.62 198.04 118.01 197.34 119.27C196.64 120.39 195.8 120.95 194.68 120.95C193.14 120.95 192.02 120.25 191.32 118.85C190.76 117.73 190.48 115.63 190.48 112.54C190.48 108.9 190.9 106.51 191.74 105.39C192.44 104.27 193.42 103.85 194.68 103.85Z" fill="black"/>
</svg>
