<svg width="15" height="15" viewBox="0 0 15 15" fill="none" xmlns="http://www.w3.org/2000/svg">
<path d="M14.115 5.28248C14.2814 5.42515 14.405 5.61107 14.4722 5.81967C14.5405 6.02794 14.5497 6.25103 14.499 6.46425C14.4483 6.67746 14.3396 6.87249 14.1849 7.02773L11.762 9.47015L12.2864 12.8702C12.3199 13.0867 12.293 13.3083 12.2088 13.5105C12.1246 13.7127 11.9863 13.8879 11.809 14.0166C11.6318 14.1454 11.4225 14.2229 11.2041 14.2405C10.9857 14.2581 10.7667 14.2151 10.5712 14.1164L7.49958 12.5669L4.4281 14.1164C4.23253 14.2154 4.01348 14.2584 3.79502 14.2409C3.57656 14.2234 3.36717 14.146 3.18987 14.0171C3.01257 13.8883 2.87423 13.7131 2.79006 13.5108C2.7059 13.3084 2.67917 13.0868 2.71282 12.8702L3.23724 9.47015L0.814384 7.02773C0.660168 6.87218 0.551776 6.67717 0.5011 6.46407C0.450425 6.25098 0.459425 6.02804 0.527113 5.81973C0.594801 5.61141 0.718561 5.42577 0.884814 5.28316C1.05107 5.14056 1.25339 5.0465 1.46958 5.01131L4.86529 4.45945L6.43947 1.40044C6.53974 1.2057 6.69172 1.04234 6.87873 0.928292C7.06573 0.814242 7.28054 0.753906 7.49958 0.753906C7.71862 0.753906 7.93343 0.814242 8.12043 0.928292C8.30744 1.04234 8.45942 1.2057 8.55969 1.40044L10.1339 4.45945L13.5296 5.01131C13.746 5.04596 13.9486 5.13981 14.115 5.28248Z" fill="#9DBC78"/>
</svg>
