<svg width="53" height="56" viewBox="0 0 53 56" fill="none" xmlns="http://www.w3.org/2000/svg">
<g clip-path="url(#clip0_802_3572)">
<path d="M16.7075 42H45.281V35.914H16.7075V42ZM27.4769 23.9846H45.2819V17.8987H27.4769V23.9846ZM7.71875 0V14.9782H13.6468V6.08596H45.281V0H7.71875ZM24.4186 17.9376H7.71875V41.9636H13.6468V24.0235H24.4186V17.9376Z" fill="white"/>
<path d="M0 55.689V49.2754H4.66068V50.4411H1.22307V52.1937H4.47509V53.3131H1.22307V55.689H0Z" fill="white"/>
<path d="M10.339 55.6884H5.48438V49.2656H10.339V50.4404H6.69823V51.9172H10.2094V53.046H6.69823V54.4958H10.339V55.6884Z" fill="white"/>
<path d="M13.1562 55.689V49.2754H17.8169V50.4411H14.3793V52.1937H17.6314V53.3131H14.3793V55.689H13.1562Z" fill="white"/>
<path d="M18.7578 55.6884V49.2656H19.9717V55.6884H18.7578Z" fill="white"/>
<path d="M25.3879 49.2578H26.611V55.6896H25.851V55.699L22.4418 51.3591V55.6896H21.2188V49.2669H22.2103L25.3879 53.249V49.2578Z" fill="white"/>
<path d="M32.3343 54.4772H28.9435L28.3876 55.6884H27.0625L29.9717 49.2656H31.306L34.2152 55.6884H32.881L32.3343 54.4772ZM30.6389 50.6143L29.4342 53.3489H31.8427L30.638 50.6143H30.6389Z" fill="white"/>
<path d="M39.0285 49.2578H40.2515V55.6896H39.4916V55.699L36.0824 51.3591V55.6896H34.8594V49.2669H35.8508L39.0285 53.249V49.2578Z" fill="white"/>
<path d="M47.0897 54.8821C46.4226 55.5334 45.5607 55.8367 44.6251 55.8367C42.2167 55.8367 41.1968 54.194 41.1876 52.5239C41.1783 50.845 42.2811 49.1387 44.6251 49.1387C45.5055 49.1387 46.3389 49.469 47.0061 50.1206L46.191 50.9005C45.7646 50.4873 45.1903 50.2953 44.6251 50.2953C43.0593 50.2953 42.383 51.4511 42.3922 52.5249C42.4014 53.5894 43.0226 54.6996 44.6251 54.6996C45.1903 54.6996 45.8298 54.4704 46.2554 54.0483L47.0889 54.8826L47.0897 54.8821Z" fill="white"/>
<path d="M52.6125 55.6884H47.7578V49.2656H52.6125V50.4404H48.9717V51.9172H52.4828V53.046H48.9717V54.4958H52.6125V55.6884Z" fill="white"/>
</g>
<defs>
<clipPath id="clip0_802_3572">
<rect width="53" height="56" fill="white"/>
</clipPath>
</defs>
</svg>
